<svg xmlns="http://www.w3.org/2000/svg" viewBox="0 0 533.5 544.3" width="100%" height="100%">
  <path fill="#4285F4" d="M533.5 278.4c0-17.5-1.5-34.3-4.3-50.5H272.1v95.5h147.1c-6.4 34.3-25.2 63.3-53.8 82.8l87 67.4c50.7-46.7 80.1-115.5 80.1-195.2z"/>
  <path fill="#34A853" d="M272.1 544.3c72.5 0 133.2-23.9 177.6-64.8l-87-67.4c-24.2 16.2-55 25.8-90.6 25.8-69.7 0-128.7-47-149.8-110.1l-89.6 69.2c43.8 86.7 134.2 147.3 239.4 147.3z"/>
  <path fill="#FBBC05" d="M122.3 327.8c-10.3-30.6-10.3-63.7 0-94.3l-89.6-69.2c-39.1 77.8-39.1 168.8 0 246.6l89.6-69.1z"/>
  <path fill="#EA4335" d="M272.1 107.7c39.4-.6 77.2 13.8 106.3 40.9l79.3-79.3C411.6 24.7 343.3-.5 272.1 0 167 0 76.5 60.6 32.7 147.3l89.6 69.2c21-63.1 80.1-110.1 149.8-108.8z"/>
</svg>
