<svg xmlns="http://www.w3.org/2000/svg" xmlns:xlink="http://www.w3.org/1999/xlink" width="500" zoomAndPan="magnify" viewBox="0 0 375 374.999991" height="500" preserveAspectRatio="xMidYMid meet" version="1.2"><defs><clipPath id="185099ead7"><path d="M 138 106 L 251.367188 106 L 251.367188 216.441406 L 138 216.441406 Z M 138 106 "/></clipPath><clipPath id="2b3d9ebe0e"><path d="M 114.117188 84.441406 L 194 84.441406 L 194 162 L 114.117188 162 Z M 114.117188 84.441406 "/></clipPath></defs><g id="0b280522d6"><g clip-rule="nonzero" clip-path="url(#185099ead7)"><path style=" stroke:none;fill-rule:nonzero;fill:#00bf63;fill-opacity:1;" d="M 238.242188 120.886719 C 229.414062 111.4375 216.863281 106.632812 200.949219 106.632812 L 193.355469 106.632812 C 194.75 111.398438 195.410156 117.011719 195.410156 123.480469 C 195.410156 124.101562 195.410156 124.71875 195.371094 125.339844 L 200.910156 125.339844 C 211.597656 125.339844 219.304688 128.050781 224.570312 133.667969 C 229.917969 139.398438 232.628906 148.769531 232.628906 161.589844 C 232.628906 174.292969 229.917969 183.585938 224.609375 189.203125 C 219.382812 194.742188 211.597656 197.453125 200.910156 197.453125 L 188.515625 197.453125 C 177.828125 197.453125 170.082031 194.742188 164.8125 189.203125 C 159.585938 183.703125 156.914062 174.640625 156.796875 162.246094 L 148.585938 162.246094 C 144.792969 162.246094 141.304688 161.898438 138.128906 161.164062 C 138.128906 161.28125 138.128906 161.433594 138.128906 161.550781 C 138.128906 179.210938 142.546875 192.804688 151.257812 202.023438 C 160.089844 211.355469 172.636719 216.121094 188.515625 216.121094 L 200.910156 216.121094 C 216.789062 216.121094 229.335938 211.394531 238.164062 202.023438 C 246.878906 192.804688 251.292969 179.210938 251.292969 161.550781 C 251.332031 143.851562 246.917969 130.179688 238.242188 120.886719 Z M 238.242188 120.886719 "/></g><path style=" stroke:none;fill-rule:nonzero;fill:#00bf63;fill-opacity:1;" d="M 195.410156 125.300781 C 195.136719 137.191406 192.464844 145.980469 187.160156 152.101562 C 181.3125 158.839844 172.558594 162.246094 161.058594 162.246094 L 156.875 162.246094 C 156.875 162.015625 156.875 161.78125 156.875 161.550781 C 156.875 154.503906 157.6875 148.5 159.316406 143.542969 C 160.632812 139.515625 162.492188 136.183594 164.929688 133.628906 C 167.949219 130.375 171.863281 128.089844 176.664062 126.734375 C 180.152344 125.765625 184.101562 125.261719 188.59375 125.261719 L 195.410156 125.261719 Z M 195.410156 125.300781 "/><g clip-rule="nonzero" clip-path="url(#2b3d9ebe0e)"><path style=" stroke:none;fill-rule:nonzero;fill:#00bf63;fill-opacity:1;" d="M 193.355469 106.59375 C 192 101.910156 189.988281 97.996094 187.277344 94.78125 C 181.46875 87.929688 172.675781 84.480469 161.019531 84.480469 L 148.625 84.480469 C 137.007812 84.480469 128.175781 87.929688 122.367188 94.746094 C 116.828125 101.210938 114.117188 110.660156 114.117188 123.558594 C 114.117188 136.417969 116.789062 145.75 122.289062 152.140625 C 126.203125 156.671875 131.507812 159.691406 138.128906 161.164062 C 138.167969 154.269531 138.867188 147.996094 140.222656 142.339844 C 140.839844 139.746094 141.617188 137.269531 142.546875 134.90625 C 144.675781 129.445312 147.542969 124.757812 151.21875 120.847656 C 157.144531 114.496094 164.738281 110.273438 173.875 108.144531 C 178.367188 107.097656 183.25 106.554688 188.515625 106.554688 L 193.355469 106.554688 Z M 193.355469 106.59375 "/></g><g style="fill:#e8f2ff;fill-opacity:1;"><g transform="translate(74.2117, 260.949438)"><path style="stroke:none" d="M 31.046875 -30.640625 C 31.835938 -29.660156 32.421875 -28.328125 32.796875 -26.640625 C 32.960938 -25.847656 33.09375 -24.960938 33.1875 -23.984375 C 33.28125 -23.003906 33.328125 -21.957031 33.328125 -20.84375 L 33.328125 -12.765625 C 33.328125 -11.628906 33.28125 -10.570312 33.1875 -9.59375 C 33.09375 -8.613281 32.960938 -7.726562 32.796875 -6.9375 C 32.421875 -5.28125 31.835938 -3.929688 31.046875 -2.890625 C 30.203125 -1.835938 29.140625 -1.09375 27.859375 -0.65625 C 26.554688 -0.1875 25.019531 0.046875 23.25 0.046875 L 13.296875 0.046875 C 11.503906 0.046875 9.984375 -0.1875 8.734375 -0.65625 C 7.453125 -1.09375 6.390625 -1.851562 5.546875 -2.9375 C 4.734375 -4 4.148438 -5.332031 3.796875 -6.9375 C 3.609375 -7.726562 3.472656 -8.613281 3.390625 -9.59375 C 3.304688 -10.570312 3.265625 -11.628906 3.265625 -12.765625 L 3.265625 -20.84375 C 3.265625 -23.1875 3.441406 -25.117188 3.796875 -26.640625 C 4.148438 -28.242188 4.734375 -29.578125 5.546875 -30.640625 C 6.390625 -31.671875 7.453125 -32.429688 8.734375 -32.921875 C 10.035156 -33.378906 11.554688 -33.609375 13.296875 -33.609375 L 23.25 -33.609375 C 25.019531 -33.609375 26.554688 -33.378906 27.859375 -32.921875 C 29.140625 -32.429688 30.203125 -31.671875 31.046875 -30.640625 Z M 27.25 -21.546875 C 27.25 -22.140625 27.234375 -22.6875 27.203125 -23.1875 C 27.179688 -23.695312 27.128906 -24.15625 27.046875 -24.5625 C 26.941406 -25.320312 26.710938 -25.929688 26.359375 -26.390625 C 26.085938 -26.773438 25.675781 -27.078125 25.125 -27.296875 C 24.851562 -27.378906 24.546875 -27.445312 24.203125 -27.5 C 23.867188 -27.550781 23.484375 -27.578125 23.046875 -27.578125 L 13.5 -27.578125 C 13.0625 -27.578125 12.671875 -27.550781 12.328125 -27.5 C 11.992188 -27.445312 11.691406 -27.378906 11.421875 -27.296875 C 10.878906 -27.078125 10.472656 -26.773438 10.203125 -26.390625 C 10.035156 -26.171875 9.894531 -25.90625 9.78125 -25.59375 C 9.675781 -25.28125 9.582031 -24.9375 9.5 -24.5625 C 9.445312 -24.15625 9.398438 -23.695312 9.359375 -23.1875 C 9.316406 -22.6875 9.296875 -22.140625 9.296875 -21.546875 L 9.296875 -12.03125 C 9.296875 -11.4375 9.316406 -10.882812 9.359375 -10.375 C 9.398438 -9.875 9.445312 -9.421875 9.5 -9.015625 C 9.582031 -8.660156 9.675781 -8.328125 9.78125 -8.015625 C 9.894531 -7.703125 10.035156 -7.4375 10.203125 -7.21875 C 10.472656 -6.78125 10.878906 -6.484375 11.421875 -6.328125 C 11.910156 -6.128906 12.601562 -6.03125 13.5 -6.03125 L 23.046875 -6.03125 C 23.941406 -6.03125 24.632812 -6.128906 25.125 -6.328125 C 25.675781 -6.484375 26.085938 -6.78125 26.359375 -7.21875 C 26.679688 -7.625 26.910156 -8.222656 27.046875 -9.015625 C 27.128906 -9.421875 27.179688 -9.875 27.203125 -10.375 C 27.234375 -10.882812 27.25 -11.4375 27.25 -12.03125 Z M 27.25 -21.546875 "/></g></g><g style="fill:#e8f2ff;fill-opacity:1;"><g transform="translate(110.481659, 260.949438)"><path style="stroke:none" d="M 31.09375 -23.859375 L 31.09375 -23.625 C 31.09375 -23.644531 31.09375 -23.660156 31.09375 -23.671875 C 31.09375 -23.691406 31.09375 -23.71875 31.09375 -23.75 C 31.09375 -23.769531 31.09375 -23.785156 31.09375 -23.796875 C 31.09375 -23.816406 31.09375 -23.835938 31.09375 -23.859375 Z M 31.859375 -1.75 C 32.023438 -1.53125 32.082031 -1.207031 32.03125 -0.78125 C 31.945312 -0.226562 31.632812 0.046875 31.09375 0.046875 L 26.59375 0.046875 C 26.238281 0.046875 25.957031 -0.0351562 25.75 -0.203125 C 25.664062 -0.253906 25.585938 -0.332031 25.515625 -0.4375 C 25.453125 -0.550781 25.378906 -0.664062 25.296875 -0.78125 L 17.90625 -13.875 L 9.296875 -13.875 L 9.296875 -1.390625 C 9.296875 -0.765625 9.148438 -0.367188 8.859375 -0.203125 C 8.578125 -0.0351562 8.34375 0.046875 8.15625 0.046875 L 4.453125 0.046875 C 4.253906 0.046875 4.003906 -0.0351562 3.703125 -0.203125 C 3.410156 -0.367188 3.265625 -0.765625 3.265625 -1.390625 L 3.265625 -18.515625 C 3.265625 -19.140625 3.410156 -19.523438 3.703125 -19.671875 C 4.003906 -19.828125 4.253906 -19.90625 4.453125 -19.90625 L 22.1875 -19.90625 C 23.226562 -19.90625 23.953125 -20.207031 24.359375 -20.8125 C 24.796875 -21.40625 25.015625 -22.382812 25.015625 -23.75 C 25.015625 -25.101562 24.796875 -26.082031 24.359375 -26.6875 C 23.953125 -27.28125 23.226562 -27.578125 22.1875 -27.578125 L 4.453125 -27.578125 C 4.253906 -27.578125 4.003906 -27.648438 3.703125 -27.796875 C 3.410156 -27.953125 3.265625 -28.34375 3.265625 -28.96875 L 3.265625 -32.1875 C 3.265625 -32.84375 3.410156 -33.242188 3.703125 -33.390625 C 4.003906 -33.535156 4.253906 -33.609375 4.453125 -33.609375 L 23.25 -33.609375 C 26.050781 -33.609375 28.066406 -32.738281 29.296875 -31 C 30.460938 -29.3125 31.0625 -26.894531 31.09375 -23.75 C 31.0625 -20.59375 30.460938 -18.171875 29.296875 -16.484375 C 28.253906 -15.066406 26.726562 -14.238281 24.71875 -14 Z M 31.859375 -1.75 "/></g></g><g style="fill:#e8f2ff;fill-opacity:1;"><g transform="translate(145.486855, 260.949438)"><path style="stroke:none" d="M 8.15625 -33.609375 C 8.320312 -33.609375 8.550781 -33.523438 8.84375 -33.359375 C 9.144531 -33.203125 9.296875 -32.8125 9.296875 -32.1875 L 9.296875 -1.390625 C 9.296875 -0.765625 9.144531 -0.367188 8.84375 -0.203125 C 8.550781 -0.0351562 8.320312 0.046875 8.15625 0.046875 L 4.40625 0.046875 C 4.238281 0.046875 4.003906 -0.0351562 3.703125 -0.203125 C 3.410156 -0.367188 3.265625 -0.765625 3.265625 -1.390625 L 3.265625 -32.1875 C 3.265625 -32.8125 3.410156 -33.203125 3.703125 -33.359375 C 4.003906 -33.523438 4.238281 -33.609375 4.40625 -33.609375 Z M 8.15625 -33.609375 "/></g></g><g style="fill:#e8f2ff;fill-opacity:1;"><g transform="translate(157.726246, 260.949438)"><path style="stroke:none" d="M 27.78125 -7.296875 C 27.96875 -7.296875 28.210938 -7.222656 28.515625 -7.078125 C 28.816406 -6.929688 28.96875 -6.546875 28.96875 -5.921875 L 28.96875 -1.421875 C 28.96875 -0.796875 28.816406 -0.410156 28.515625 -0.265625 C 28.210938 -0.117188 27.96875 -0.046875 27.78125 -0.046875 L 13.296875 -0.046875 C 12.398438 -0.046875 11.570312 -0.0976562 10.8125 -0.203125 C 10.050781 -0.304688 9.359375 -0.484375 8.734375 -0.734375 C 7.398438 -1.191406 6.335938 -1.941406 5.546875 -2.984375 C 4.734375 -4.035156 4.148438 -5.363281 3.796875 -6.96875 C 3.660156 -7.65625 3.539062 -8.40625 3.4375 -9.21875 C 3.34375 -10.03125 3.285156 -10.914062 3.265625 -11.875 L 3.265625 -12.078125 L 3.34375 -17.21875 C 3.425781 -17.519531 3.578125 -17.859375 3.796875 -18.234375 C 4.390625 -19.296875 5.3125 -19.867188 6.5625 -19.953125 L 27.625 -19.984375 C 27.78125 -19.984375 28.007812 -19.910156 28.3125 -19.765625 C 28.613281 -19.617188 28.765625 -19.234375 28.765625 -18.609375 L 28.765625 -15.375 C 28.765625 -14.75 28.613281 -14.351562 28.3125 -14.1875 C 28.007812 -14.03125 27.78125 -13.953125 27.625 -13.953125 L 9.390625 -13.953125 C 9.390625 -13.953125 9.378906 -13.800781 9.359375 -13.5 C 9.347656 -13.207031 9.332031 -12.867188 9.3125 -12.484375 C 9.300781 -12.097656 9.296875 -11.753906 9.296875 -11.453125 C 9.296875 -11.160156 9.296875 -11.015625 9.296875 -11.015625 C 9.328125 -10.910156 9.34375 -10.796875 9.34375 -10.671875 C 9.34375 -10.546875 9.359375 -10.429688 9.390625 -10.328125 C 9.492188 -9.554688 9.722656 -8.941406 10.078125 -8.484375 C 10.398438 -8.078125 10.804688 -7.78125 11.296875 -7.59375 C 11.597656 -7.507812 11.914062 -7.4375 12.25 -7.375 C 12.59375 -7.320312 12.984375 -7.296875 13.421875 -7.296875 Z M 6.859375 -19.625 Z M 27.828125 -33.703125 C 27.984375 -33.703125 28.210938 -33.617188 28.515625 -33.453125 C 28.816406 -33.285156 28.96875 -32.890625 28.96875 -32.265625 L 28.96875 -29.046875 C 28.96875 -28.421875 28.816406 -28.023438 28.515625 -27.859375 C 28.210938 -27.703125 27.984375 -27.625 27.828125 -27.625 L 4.359375 -27.65625 C 4.203125 -27.65625 3.976562 -27.726562 3.6875 -27.875 C 3.40625 -28.03125 3.265625 -28.421875 3.265625 -29.046875 L 3.265625 -32.234375 C 3.265625 -32.878906 3.40625 -33.285156 3.6875 -33.453125 C 3.976562 -33.617188 4.203125 -33.703125 4.359375 -33.703125 Z M 27.828125 -33.703125 "/></g></g><g style="fill:#e8f2ff;fill-opacity:1;"><g transform="translate(189.630727, 260.949438)"><path style="stroke:none" d="M 32.140625 -33.609375 C 32.304688 -33.609375 32.539062 -33.535156 32.84375 -33.390625 C 33.144531 -33.242188 33.296875 -32.84375 33.296875 -32.1875 L 33.296875 -5.21875 C 33.296875 -3.238281 33.007812 -1.878906 32.4375 -1.140625 C 31.863281 -0.347656 30.976562 0.046875 29.78125 0.046875 L 26.796875 0.046875 C 26.253906 0.046875 25.796875 0.00390625 25.421875 -0.078125 C 25.222656 -0.128906 25.03125 -0.1875 24.84375 -0.25 C 24.65625 -0.320312 24.476562 -0.414062 24.3125 -0.53125 C 23.988281 -0.71875 23.691406 -1.015625 23.421875 -1.421875 C 23.285156 -1.617188 23.132812 -1.835938 22.96875 -2.078125 C 22.800781 -2.328125 22.640625 -2.613281 22.484375 -2.9375 L 9.546875 -25.859375 C 9.515625 -25.921875 9.484375 -25.957031 9.453125 -25.96875 C 9.429688 -25.976562 9.421875 -25.984375 9.421875 -25.984375 L 9.21875 -25.984375 C 9.21875 -25.984375 9.21875 -25.976562 9.21875 -25.96875 C 9.21875 -25.957031 9.21875 -25.9375 9.21875 -25.90625 L 9.21875 -1.390625 C 9.21875 -0.765625 9.070312 -0.367188 8.78125 -0.203125 C 8.5 -0.0351562 8.265625 0.046875 8.078125 0.046875 L 4.453125 0.046875 C 4.253906 0.046875 4.003906 -0.0351562 3.703125 -0.203125 C 3.410156 -0.367188 3.265625 -0.765625 3.265625 -1.390625 L 3.265625 -28.359375 C 3.265625 -30.335938 3.550781 -31.707031 4.125 -32.46875 C 4.71875 -33.226562 5.597656 -33.609375 6.765625 -33.609375 L 9.828125 -33.609375 C 10.097656 -33.609375 10.351562 -33.601562 10.59375 -33.59375 C 10.84375 -33.582031 11.066406 -33.5625 11.265625 -33.53125 C 11.691406 -33.445312 12.070312 -33.285156 12.40625 -33.046875 C 12.675781 -32.859375 12.960938 -32.546875 13.265625 -32.109375 C 13.398438 -31.921875 13.539062 -31.703125 13.6875 -31.453125 C 13.832031 -31.210938 13.988281 -30.941406 14.15625 -30.640625 L 27.046875 -7.703125 C 27.078125 -7.628906 27.117188 -7.59375 27.171875 -7.59375 L 27.375 -7.59375 C 27.375 -7.613281 27.375 -7.625 27.375 -7.625 C 27.375 -7.625 27.375 -7.640625 27.375 -7.671875 L 27.375 -32.1875 C 27.375 -32.84375 27.515625 -33.242188 27.796875 -33.390625 C 28.085938 -33.535156 28.328125 -33.609375 28.515625 -33.609375 Z M 32.140625 -33.609375 "/></g></g><g style="fill:#e8f2ff;fill-opacity:1;"><g transform="translate(225.859883, 260.949438)"><path style="stroke:none" d="M 31.453125 -33.609375 C 31.640625 -33.609375 31.882812 -33.535156 32.1875 -33.390625 C 32.488281 -33.242188 32.640625 -32.859375 32.640625 -32.234375 L 32.640625 -29.046875 C 32.640625 -28.367188 32.488281 -27.953125 32.1875 -27.796875 C 31.882812 -27.648438 31.640625 -27.578125 31.453125 -27.578125 L 20.96875 -27.578125 L 20.96875 -1.390625 C 20.96875 -0.765625 20.820312 -0.375 20.53125 -0.21875 C 20.25 -0.0703125 20.015625 0 19.828125 0 L 16.078125 0 C 15.910156 0 15.675781 -0.0703125 15.375 -0.21875 C 15.082031 -0.375 14.9375 -0.765625 14.9375 -1.390625 L 14.9375 -27.578125 L 4.453125 -27.578125 C 4.253906 -27.578125 4.003906 -27.648438 3.703125 -27.796875 C 3.410156 -27.953125 3.265625 -28.367188 3.265625 -29.046875 L 3.265625 -32.234375 C 3.265625 -32.859375 3.410156 -33.242188 3.703125 -33.390625 C 4.003906 -33.535156 4.253906 -33.609375 4.453125 -33.609375 Z M 31.453125 -33.609375 "/></g></g><g style="fill:#e8f2ff;fill-opacity:1;"><g transform="translate(261.436256, 260.949438)"><path style="stroke:none" d="M 8.15625 -33.609375 C 8.320312 -33.609375 8.550781 -33.523438 8.84375 -33.359375 C 9.144531 -33.203125 9.296875 -32.8125 9.296875 -32.1875 L 9.296875 -1.390625 C 9.296875 -0.765625 9.144531 -0.367188 8.84375 -0.203125 C 8.550781 -0.0351562 8.320312 0.046875 8.15625 0.046875 L 4.40625 0.046875 C 4.238281 0.046875 4.003906 -0.0351562 3.703125 -0.203125 C 3.410156 -0.367188 3.265625 -0.765625 3.265625 -1.390625 L 3.265625 -32.1875 C 3.265625 -32.8125 3.410156 -33.203125 3.703125 -33.359375 C 4.003906 -33.523438 4.238281 -33.609375 4.40625 -33.609375 Z M 8.15625 -33.609375 "/></g></g><g style="fill:#e8f2ff;fill-opacity:1;"><g transform="translate(273.675647, 260.949438)"><path style="stroke:none" d="M 25.125 -29.828125 L 36.59375 -1.546875 C 36.757812 -1.171875 36.800781 -0.847656 36.71875 -0.578125 C 36.6875 -0.460938 36.609375 -0.328125 36.484375 -0.171875 C 36.367188 -0.0234375 36.144531 0.046875 35.8125 0.046875 L 31.453125 0.046875 C 30.878906 0.046875 30.484375 -0.253906 30.265625 -0.859375 L 20.15625 -26.109375 C 20.125 -26.160156 20.109375 -26.1875 20.109375 -26.1875 L 19.953125 -26.1875 C 19.953125 -26.1875 19.941406 -26.179688 19.921875 -26.171875 C 19.910156 -26.160156 19.894531 -26.125 19.875 -26.0625 L 14.640625 -12.84375 L 19.703125 -12.84375 C 20.273438 -12.84375 20.671875 -12.570312 20.890625 -12.03125 L 22.359375 -8.40625 C 22.492188 -7.9375 22.4375 -7.539062 22.1875 -7.21875 C 21.96875 -6.84375 21.613281 -6.65625 21.125 -6.65625 L 12.203125 -6.65625 L 9.875 -0.8125 C 9.65625 -0.238281 9.273438 0.046875 8.734375 0.046875 L 4.25 0.046875 C 3.914062 0.046875 3.6875 -0.0234375 3.5625 -0.171875 C 3.445312 -0.328125 3.375 -0.460938 3.34375 -0.578125 C 3.257812 -0.816406 3.285156 -1.140625 3.421875 -1.546875 L 14.8125 -29.828125 C 15.351562 -31.265625 15.953125 -32.253906 16.609375 -32.796875 C 16.691406 -32.847656 16.785156 -32.914062 16.890625 -33 C 16.992188 -33.082031 17.101562 -33.148438 17.21875 -33.203125 C 18.03125 -33.773438 18.96875 -34.0625 20.03125 -34.0625 C 21.144531 -34.0625 22.148438 -33.722656 23.046875 -33.046875 C 23.941406 -32.367188 24.554688 -31.5 24.890625 -30.4375 C 24.941406 -30.351562 24.988281 -30.253906 25.03125 -30.140625 C 25.070312 -30.035156 25.101562 -29.929688 25.125 -29.828125 Z M 25.125 -29.828125 "/></g></g></g></svg>
