<svg xmlns="http://www.w3.org/2000/svg" xmlns:xlink="http://www.w3.org/1999/xlink" width="500" zoomAndPan="magnify" viewBox="0 0 375 374.999991" height="500" preserveAspectRatio="xMidYMid meet" version="1.2"><defs><clipPath id="b8cc160246"><path d="M 285.941406 186.144531 L 308.527344 186.144531 L 308.527344 197.4375 L 285.941406 197.4375 Z M 285.941406 186.144531 "/></clipPath><clipPath id="ea119802bf"><path d="M 285.945312 191.8125 C 285.945312 188.707031 288.464844 186.1875 291.570312 186.1875 L 302.808594 186.1875 C 305.910156 186.1875 308.484375 188.671875 308.503906 191.773438 C 308.527344 194.898438 306 197.4375 302.882812 197.4375 L 291.570312 197.4375 C 288.464844 197.4375 285.945312 194.917969 285.945312 191.8125 "/></clipPath><clipPath id="6519087b35"><path d="M 285.945312 200.695312 L 298.636719 200.695312 L 298.636719 221.378906 L 285.945312 221.378906 Z M 285.945312 200.695312 "/></clipPath><clipPath id="0b7d3f13d0"><path d="M 285.949219 212.324219 L 285.949219 200.734375 L 296.957031 211.742188 C 299.152344 213.941406 299.152344 217.5 296.957031 219.699219 C 294.761719 221.894531 291.199219 221.894531 289.003906 219.699219 C 287.046875 217.742188 285.949219 215.089844 285.949219 212.324219 "/></clipPath><clipPath id="88f7e47b31"><path d="M 285.945312 162.261719 L 298.636719 162.261719 L 298.636719 182.894531 L 285.945312 182.894531 Z M 285.945312 162.261719 "/></clipPath><clipPath id="79a8503ed3"><path d="M 285.949219 182.894531 L 285.949219 171.308594 C 285.949219 168.542969 287.046875 165.886719 289.003906 163.929688 C 291.199219 161.734375 294.757812 161.734375 296.957031 163.933594 C 299.15625 166.128906 299.152344 169.6875 296.957031 171.886719 Z M 285.949219 182.894531 "/></clipPath><clipPath id="9508b91f50"><path d="M 263.355469 210 L 274.699219 210 L 274.699219 231.273438 L 263.355469 231.273438 Z M 263.355469 210 "/></clipPath><clipPath id="9a876bbf77"><path d="M 263.449219 225.550781 C 263.449219 222.832031 264.527344 220.222656 266.453125 218.296875 L 274.699219 210.054688 L 274.699219 225.625 C 274.699219 228.746094 272.15625 231.273438 269.027344 231.246094 C 265.925781 231.222656 263.449219 228.652344 263.449219 225.550781 "/></clipPath><clipPath id="819a3eb457"><path d="M 263.355469 152.332031 L 274.699219 152.332031 L 274.699219 173.605469 L 263.355469 173.605469 Z M 263.355469 152.332031 "/></clipPath><clipPath id="0333512fc9"><path d="M 266.503906 165.382812 C 264.546875 163.425781 263.449219 160.773438 263.449219 158.007812 C 263.449219 155.113281 265.632812 152.734375 268.4375 152.417969 C 268.4375 152.417969 268.441406 152.417969 268.441406 152.417969 C 268.652344 152.414062 268.863281 152.414062 269.074219 152.414062 C 269.28125 152.414062 269.492188 152.414062 269.703125 152.417969 C 269.707031 152.417969 269.707031 152.417969 269.707031 152.417969 C 272.515625 152.730469 274.699219 155.113281 274.699219 158.003906 L 274.699219 173.578125 Z M 266.503906 165.382812 "/></clipPath><clipPath id="ae2bae1294"><path d="M 229.636719 162.261719 L 274.699219 162.261719 L 274.699219 221.347656 L 229.636719 221.347656 Z M 229.636719 162.261719 "/></clipPath><clipPath id="c19ce86685"><path d="M 229.648438 192.109375 C 229.476562 188.878906 232.121094 186.191406 235.359375 186.191406 L 255.445312 186.191406 C 255.460938 186.191406 255.472656 186.167969 255.457031 186.15625 L 241.1875 171.886719 C 238.992188 169.691406 238.992188 166.128906 241.1875 163.929688 C 243.375 161.746094 246.910156 161.734375 249.109375 163.894531 C 249.121094 163.90625 249.132812 163.917969 249.144531 163.929688 C 249.15625 163.941406 249.167969 163.953125 249.179688 163.964844 L 263.449219 178.234375 L 263.449219 178.238281 L 269.070312 183.859375 L 269.074219 183.859375 L 271.402344 186.191406 L 273.050781 187.839844 C 274.105469 188.894531 274.699219 190.324219 274.699219 191.816406 C 274.699219 193.308594 274.105469 194.734375 273.050781 195.792969 L 263.449219 205.394531 L 249.175781 219.664062 L 249.140625 219.695312 L 249.105469 219.730469 C 246.90625 221.894531 243.375 221.882812 241.1875 219.695312 C 238.988281 217.5 238.988281 213.9375 241.183594 211.742188 L 255.457031 197.472656 C 255.46875 197.457031 255.460938 197.4375 255.441406 197.4375 L 235.261719 197.4375 C 232.257812 197.4375 229.800781 195.078125 229.648438 192.109375 "/></clipPath></defs><g id="81bbaaf576"><g style="fill:#481c4b;fill-opacity:1;"><g transform="translate(61.35619, 202.84635)"><path style="stroke:none" d="M 20.546875 -20.28125 C 21.066406 -19.632812 21.453125 -18.75 21.703125 -17.625 C 21.816406 -17.101562 21.90625 -16.519531 21.96875 -15.875 C 22.03125 -15.226562 22.0625 -14.535156 22.0625 -13.796875 L 22.0625 -8.453125 C 22.0625 -7.691406 22.03125 -6.988281 21.96875 -6.34375 C 21.90625 -5.695312 21.816406 -5.113281 21.703125 -4.59375 C 21.453125 -3.488281 21.066406 -2.597656 20.546875 -1.921875 C 19.984375 -1.210938 19.28125 -0.71875 18.4375 -0.4375 C 17.570312 -0.125 16.554688 0.03125 15.390625 0.03125 L 8.796875 0.03125 C 7.609375 0.03125 6.601562 -0.125 5.78125 -0.4375 C 4.9375 -0.71875 4.234375 -1.21875 3.671875 -1.9375 C 3.128906 -2.644531 2.742188 -3.53125 2.515625 -4.59375 C 2.390625 -5.113281 2.296875 -5.695312 2.234375 -6.34375 C 2.179688 -6.988281 2.15625 -7.691406 2.15625 -8.453125 L 2.15625 -13.796875 C 2.15625 -15.347656 2.273438 -16.625 2.515625 -17.625 C 2.742188 -18.6875 3.128906 -19.570312 3.671875 -20.28125 C 4.234375 -20.957031 4.9375 -21.457031 5.78125 -21.78125 C 6.644531 -22.09375 7.648438 -22.25 8.796875 -22.25 L 15.390625 -22.25 C 16.554688 -22.25 17.570312 -22.09375 18.4375 -21.78125 C 19.28125 -21.457031 19.984375 -20.957031 20.546875 -20.28125 Z M 18.03125 -14.25 C 18.03125 -14.644531 18.019531 -15.007812 18 -15.34375 C 17.988281 -15.675781 17.957031 -15.976562 17.90625 -16.25 C 17.832031 -16.757812 17.675781 -17.164062 17.4375 -17.46875 C 17.257812 -17.71875 16.988281 -17.914062 16.625 -18.0625 C 16.445312 -18.113281 16.242188 -18.15625 16.015625 -18.1875 C 15.796875 -18.226562 15.539062 -18.25 15.25 -18.25 L 8.9375 -18.25 C 8.644531 -18.25 8.382812 -18.226562 8.15625 -18.1875 C 7.9375 -18.15625 7.738281 -18.113281 7.5625 -18.0625 C 7.195312 -17.914062 6.925781 -17.71875 6.75 -17.46875 C 6.644531 -17.320312 6.554688 -17.144531 6.484375 -16.9375 C 6.410156 -16.726562 6.347656 -16.5 6.296875 -16.25 C 6.253906 -15.976562 6.21875 -15.675781 6.1875 -15.34375 C 6.164062 -15.007812 6.15625 -14.644531 6.15625 -14.25 L 6.15625 -7.96875 C 6.15625 -7.570312 6.164062 -7.207031 6.1875 -6.875 C 6.21875 -6.539062 6.253906 -6.238281 6.296875 -5.96875 C 6.347656 -5.726562 6.410156 -5.503906 6.484375 -5.296875 C 6.554688 -5.097656 6.644531 -4.925781 6.75 -4.78125 C 6.925781 -4.488281 7.195312 -4.289062 7.5625 -4.1875 C 7.882812 -4.0625 8.34375 -4 8.9375 -4 L 15.25 -4 C 15.84375 -4 16.300781 -4.0625 16.625 -4.1875 C 16.988281 -4.289062 17.257812 -4.488281 17.4375 -4.78125 C 17.65625 -5.050781 17.8125 -5.445312 17.90625 -5.96875 C 17.957031 -6.238281 17.988281 -6.539062 18 -6.875 C 18.019531 -7.207031 18.03125 -7.570312 18.03125 -7.96875 Z M 18.03125 -14.25 "/></g></g><g style="fill:#481c4b;fill-opacity:1;"><g transform="translate(86.925196, 202.84635)"><path style="stroke:none" d="M 20.578125 -15.796875 L 20.578125 -15.640625 C 20.578125 -15.648438 20.578125 -15.660156 20.578125 -15.671875 C 20.578125 -15.679688 20.578125 -15.695312 20.578125 -15.71875 C 20.578125 -15.726562 20.578125 -15.738281 20.578125 -15.75 C 20.578125 -15.757812 20.578125 -15.773438 20.578125 -15.796875 Z M 21.09375 -1.15625 C 21.195312 -1.007812 21.226562 -0.796875 21.1875 -0.515625 C 21.132812 -0.148438 20.929688 0.03125 20.578125 0.03125 L 17.609375 0.03125 C 17.367188 0.03125 17.175781 -0.0234375 17.03125 -0.140625 C 16.976562 -0.171875 16.929688 -0.222656 16.890625 -0.296875 C 16.847656 -0.367188 16.796875 -0.441406 16.734375 -0.515625 L 11.859375 -9.1875 L 6.15625 -9.1875 L 6.15625 -0.921875 C 6.15625 -0.503906 6.0625 -0.238281 5.875 -0.125 C 5.6875 -0.0195312 5.53125 0.03125 5.40625 0.03125 L 2.9375 0.03125 C 2.8125 0.03125 2.648438 -0.0195312 2.453125 -0.125 C 2.253906 -0.238281 2.15625 -0.503906 2.15625 -0.921875 L 2.15625 -12.265625 C 2.15625 -12.671875 2.253906 -12.921875 2.453125 -13.015625 C 2.648438 -13.117188 2.8125 -13.171875 2.9375 -13.171875 L 14.6875 -13.171875 C 15.375 -13.171875 15.851562 -13.367188 16.125 -13.765625 C 16.40625 -14.160156 16.546875 -14.8125 16.546875 -15.71875 C 16.546875 -16.613281 16.40625 -17.257812 16.125 -17.65625 C 15.851562 -18.050781 15.375 -18.25 14.6875 -18.25 L 2.9375 -18.25 C 2.8125 -18.25 2.648438 -18.296875 2.453125 -18.390625 C 2.253906 -18.492188 2.15625 -18.753906 2.15625 -19.171875 L 2.15625 -21.296875 C 2.15625 -21.734375 2.253906 -22 2.453125 -22.09375 C 2.648438 -22.195312 2.8125 -22.25 2.9375 -22.25 L 15.390625 -22.25 C 17.242188 -22.25 18.578125 -21.671875 19.390625 -20.515625 C 20.160156 -19.398438 20.554688 -17.800781 20.578125 -15.71875 C 20.554688 -13.625 20.160156 -12.019531 19.390625 -10.90625 C 18.703125 -9.96875 17.691406 -9.421875 16.359375 -9.265625 Z M 21.09375 -1.15625 "/></g></g><g style="fill:#481c4b;fill-opacity:1;"><g transform="translate(111.657204, 202.84635)"><path style="stroke:none" d="M 5.40625 -22.25 C 5.507812 -22.25 5.660156 -22.191406 5.859375 -22.078125 C 6.054688 -21.972656 6.15625 -21.710938 6.15625 -21.296875 L 6.15625 -0.921875 C 6.15625 -0.503906 6.054688 -0.238281 5.859375 -0.125 C 5.660156 -0.0195312 5.507812 0.03125 5.40625 0.03125 L 2.921875 0.03125 C 2.804688 0.03125 2.648438 -0.0195312 2.453125 -0.125 C 2.253906 -0.238281 2.15625 -0.503906 2.15625 -0.921875 L 2.15625 -21.296875 C 2.15625 -21.710938 2.253906 -21.972656 2.453125 -22.078125 C 2.648438 -22.191406 2.804688 -22.25 2.921875 -22.25 Z M 5.40625 -22.25 "/></g></g><g style="fill:#481c4b;fill-opacity:1;"><g transform="translate(121.323204, 202.84635)"><path style="stroke:none" d="M 18.390625 -4.828125 C 18.515625 -4.828125 18.675781 -4.773438 18.875 -4.671875 C 19.070312 -4.578125 19.171875 -4.328125 19.171875 -3.921875 L 19.171875 -0.9375 C 19.171875 -0.53125 19.070312 -0.273438 18.875 -0.171875 C 18.675781 -0.078125 18.515625 -0.03125 18.390625 -0.03125 L 8.796875 -0.03125 C 8.203125 -0.03125 7.65625 -0.0664062 7.15625 -0.140625 C 6.65625 -0.210938 6.195312 -0.328125 5.78125 -0.484375 C 4.894531 -0.785156 4.191406 -1.28125 3.671875 -1.96875 C 3.128906 -2.675781 2.742188 -3.554688 2.515625 -4.609375 C 2.421875 -5.066406 2.34375 -5.5625 2.28125 -6.09375 C 2.21875 -6.632812 2.175781 -7.222656 2.15625 -7.859375 L 2.15625 -7.984375 L 2.21875 -11.390625 C 2.269531 -11.585938 2.367188 -11.8125 2.515625 -12.0625 C 2.910156 -12.769531 3.519531 -13.148438 4.34375 -13.203125 L 18.28125 -13.234375 C 18.382812 -13.234375 18.535156 -13.179688 18.734375 -13.078125 C 18.929688 -12.984375 19.03125 -12.726562 19.03125 -12.3125 L 19.03125 -10.171875 C 19.03125 -9.765625 18.929688 -9.503906 18.734375 -9.390625 C 18.535156 -9.285156 18.382812 -9.234375 18.28125 -9.234375 L 6.203125 -9.234375 C 6.203125 -9.234375 6.195312 -9.132812 6.1875 -8.9375 C 6.1875 -8.738281 6.179688 -8.515625 6.171875 -8.265625 C 6.160156 -8.015625 6.15625 -7.789062 6.15625 -7.59375 C 6.15625 -7.394531 6.15625 -7.296875 6.15625 -7.296875 C 6.175781 -7.222656 6.1875 -7.144531 6.1875 -7.0625 C 6.1875 -6.976562 6.191406 -6.898438 6.203125 -6.828125 C 6.273438 -6.328125 6.429688 -5.921875 6.671875 -5.609375 C 6.890625 -5.347656 7.160156 -5.148438 7.484375 -5.015625 C 7.679688 -4.960938 7.890625 -4.914062 8.109375 -4.875 C 8.335938 -4.84375 8.597656 -4.828125 8.890625 -4.828125 Z M 4.53125 -12.984375 Z M 18.40625 -22.296875 C 18.519531 -22.296875 18.675781 -22.242188 18.875 -22.140625 C 19.070312 -22.035156 19.171875 -21.773438 19.171875 -21.359375 L 19.171875 -19.21875 C 19.171875 -18.8125 19.070312 -18.550781 18.875 -18.4375 C 18.675781 -18.332031 18.519531 -18.28125 18.40625 -18.28125 L 2.890625 -18.3125 C 2.785156 -18.3125 2.632812 -18.359375 2.4375 -18.453125 C 2.25 -18.554688 2.15625 -18.8125 2.15625 -19.21875 L 2.15625 -21.328125 C 2.15625 -21.765625 2.25 -22.035156 2.4375 -22.140625 C 2.632812 -22.242188 2.785156 -22.296875 2.890625 -22.296875 Z M 18.40625 -22.296875 "/></g></g><g style="fill:#481c4b;fill-opacity:1;"><g transform="translate(144.003206, 202.84635)"><path style="stroke:none" d="M 21.28125 -22.25 C 21.382812 -22.25 21.535156 -22.195312 21.734375 -22.09375 C 21.929688 -22 22.03125 -21.734375 22.03125 -21.296875 L 22.03125 -3.453125 C 22.03125 -2.140625 21.84375 -1.238281 21.46875 -0.75 C 21.082031 -0.226562 20.492188 0.03125 19.703125 0.03125 L 17.734375 0.03125 C 17.378906 0.03125 17.078125 0.00390625 16.828125 -0.046875 C 16.691406 -0.0859375 16.5625 -0.128906 16.4375 -0.171875 C 16.3125 -0.222656 16.195312 -0.28125 16.09375 -0.34375 C 15.875 -0.476562 15.675781 -0.675781 15.5 -0.9375 C 15.40625 -1.070312 15.300781 -1.21875 15.1875 -1.375 C 15.082031 -1.539062 14.976562 -1.726562 14.875 -1.9375 L 6.3125 -17.125 C 6.300781 -17.15625 6.285156 -17.175781 6.265625 -17.1875 C 6.242188 -17.195312 6.234375 -17.203125 6.234375 -17.203125 L 6.109375 -17.203125 C 6.109375 -17.203125 6.109375 -17.195312 6.109375 -17.1875 C 6.109375 -17.175781 6.109375 -17.160156 6.109375 -17.140625 L 6.109375 -0.921875 C 6.109375 -0.503906 6.007812 -0.238281 5.8125 -0.125 C 5.625 -0.0195312 5.46875 0.03125 5.34375 0.03125 L 2.9375 0.03125 C 2.8125 0.03125 2.648438 -0.0195312 2.453125 -0.125 C 2.253906 -0.238281 2.15625 -0.503906 2.15625 -0.921875 L 2.15625 -18.765625 C 2.15625 -20.078125 2.347656 -20.984375 2.734375 -21.484375 C 3.128906 -21.992188 3.710938 -22.25 4.484375 -22.25 L 6.5 -22.25 C 6.6875 -22.25 6.859375 -22.242188 7.015625 -22.234375 C 7.179688 -22.222656 7.328125 -22.207031 7.453125 -22.1875 C 7.742188 -22.132812 7.992188 -22.03125 8.203125 -21.875 C 8.390625 -21.75 8.582031 -21.539062 8.78125 -21.25 C 8.863281 -21.125 8.953125 -20.976562 9.046875 -20.8125 C 9.148438 -20.65625 9.257812 -20.476562 9.375 -20.28125 L 17.90625 -5.109375 C 17.914062 -5.046875 17.941406 -5.015625 17.984375 -5.015625 L 18.109375 -5.015625 C 18.109375 -5.035156 18.109375 -5.046875 18.109375 -5.046875 C 18.109375 -5.046875 18.109375 -5.054688 18.109375 -5.078125 L 18.109375 -21.296875 C 18.109375 -21.734375 18.203125 -22 18.390625 -22.09375 C 18.585938 -22.195312 18.75 -22.25 18.875 -22.25 Z M 21.28125 -22.25 "/></g></g><g style="fill:#481c4b;fill-opacity:1;"><g transform="translate(169.545216, 202.84635)"><path style="stroke:none" d="M 20.8125 -22.25 C 20.9375 -22.25 21.097656 -22.195312 21.296875 -22.09375 C 21.492188 -22 21.59375 -21.742188 21.59375 -21.328125 L 21.59375 -19.21875 C 21.59375 -18.769531 21.492188 -18.492188 21.296875 -18.390625 C 21.097656 -18.296875 20.9375 -18.25 20.8125 -18.25 L 13.875 -18.25 L 13.875 -0.921875 C 13.875 -0.503906 13.78125 -0.242188 13.59375 -0.140625 C 13.40625 -0.046875 13.25 0 13.125 0 L 10.640625 0 C 10.523438 0 10.367188 -0.046875 10.171875 -0.140625 C 9.972656 -0.242188 9.875 -0.503906 9.875 -0.921875 L 9.875 -18.25 L 2.9375 -18.25 C 2.8125 -18.25 2.648438 -18.296875 2.453125 -18.390625 C 2.253906 -18.492188 2.15625 -18.769531 2.15625 -19.21875 L 2.15625 -21.328125 C 2.15625 -21.742188 2.253906 -22 2.453125 -22.09375 C 2.648438 -22.195312 2.8125 -22.25 2.9375 -22.25 Z M 20.8125 -22.25 "/></g></g><g style="fill:#481c4b;fill-opacity:1;"><g transform="translate(194.655222, 202.84635)"><path style="stroke:none" d="M 5.40625 -22.25 C 5.507812 -22.25 5.660156 -22.191406 5.859375 -22.078125 C 6.054688 -21.972656 6.15625 -21.710938 6.15625 -21.296875 L 6.15625 -0.921875 C 6.15625 -0.503906 6.054688 -0.238281 5.859375 -0.125 C 5.660156 -0.0195312 5.507812 0.03125 5.40625 0.03125 L 2.921875 0.03125 C 2.804688 0.03125 2.648438 -0.0195312 2.453125 -0.125 C 2.253906 -0.238281 2.15625 -0.503906 2.15625 -0.921875 L 2.15625 -21.296875 C 2.15625 -21.710938 2.253906 -21.972656 2.453125 -22.078125 C 2.648438 -22.191406 2.804688 -22.25 2.921875 -22.25 Z M 5.40625 -22.25 "/></g></g><g style="fill:#481c4b;fill-opacity:1;"><g transform="translate(204.321222, 202.84635)"><path style="stroke:none" d="M 16.625 -19.734375 L 24.21875 -1.03125 C 24.320312 -0.769531 24.347656 -0.550781 24.296875 -0.375 C 24.273438 -0.300781 24.222656 -0.210938 24.140625 -0.109375 C 24.066406 -0.015625 23.921875 0.03125 23.703125 0.03125 L 20.8125 0.03125 C 20.4375 0.03125 20.175781 -0.164062 20.03125 -0.5625 L 13.34375 -17.28125 C 13.320312 -17.3125 13.3125 -17.328125 13.3125 -17.328125 L 13.203125 -17.328125 C 13.203125 -17.328125 13.195312 -17.320312 13.1875 -17.3125 C 13.175781 -17.3125 13.164062 -17.289062 13.15625 -17.25 L 9.6875 -8.5 L 13.046875 -8.5 C 13.421875 -8.5 13.679688 -8.320312 13.828125 -7.96875 L 14.796875 -5.5625 C 14.890625 -5.257812 14.851562 -5 14.6875 -4.78125 C 14.539062 -4.53125 14.304688 -4.40625 13.984375 -4.40625 L 8.078125 -4.40625 L 6.53125 -0.546875 C 6.382812 -0.160156 6.132812 0.03125 5.78125 0.03125 L 2.8125 0.03125 C 2.59375 0.03125 2.441406 -0.015625 2.359375 -0.109375 C 2.273438 -0.210938 2.226562 -0.300781 2.21875 -0.375 C 2.164062 -0.539062 2.179688 -0.757812 2.265625 -1.03125 L 9.796875 -19.734375 C 10.160156 -20.691406 10.554688 -21.347656 10.984375 -21.703125 C 11.035156 -21.742188 11.097656 -21.789062 11.171875 -21.84375 C 11.242188 -21.894531 11.316406 -21.941406 11.390625 -21.984375 C 11.929688 -22.359375 12.550781 -22.546875 13.25 -22.546875 C 13.988281 -22.546875 14.65625 -22.316406 15.25 -21.859375 C 15.84375 -21.410156 16.25 -20.835938 16.46875 -20.140625 C 16.507812 -20.085938 16.539062 -20.023438 16.5625 -19.953125 C 16.59375 -19.878906 16.613281 -19.804688 16.625 -19.734375 Z M 16.625 -19.734375 "/></g></g><g clip-rule="nonzero" clip-path="url(#b8cc160246)"><g clip-rule="nonzero" clip-path="url(#ea119802bf)"><path style=" stroke:none;fill-rule:nonzero;fill:#481c4b;fill-opacity:1;" d="M 308.527344 197.4375 L 285.941406 197.4375 L 285.941406 186.191406 L 308.527344 186.191406 Z M 308.527344 197.4375 "/></g></g><g clip-rule="nonzero" clip-path="url(#6519087b35)"><g clip-rule="nonzero" clip-path="url(#0b7d3f13d0)"><path style=" stroke:none;fill-rule:nonzero;fill:#efd109;fill-opacity:1;" d="M 299.152344 221.894531 L 285.945312 221.894531 L 285.945312 200.746094 L 299.152344 200.746094 Z M 299.152344 221.894531 "/></g></g><g clip-rule="nonzero" clip-path="url(#88f7e47b31)"><g clip-rule="nonzero" clip-path="url(#79a8503ed3)"><path style=" stroke:none;fill-rule:nonzero;fill:#2dcf42;fill-opacity:1;" d="M 299.152344 182.894531 L 285.945312 182.894531 L 285.945312 161.746094 L 299.152344 161.746094 Z M 299.152344 182.894531 "/></g></g><g clip-rule="nonzero" clip-path="url(#9508b91f50)"><g clip-rule="nonzero" clip-path="url(#9a876bbf77)"><path style=" stroke:none;fill-rule:nonzero;fill:#2bb1eb;fill-opacity:1;" d="M 275.484375 232.058594 L 228.691406 232.058594 L 228.691406 151.546875 L 275.484375 151.546875 Z M 275.484375 232.058594 "/></g></g><g clip-rule="nonzero" clip-path="url(#819a3eb457)"><g clip-rule="nonzero" clip-path="url(#0333512fc9)"><path style=" stroke:none;fill-rule:nonzero;fill:#e01d5b;fill-opacity:1;" d="M 275.484375 232.058594 L 228.691406 232.058594 L 228.691406 151.546875 L 275.484375 151.546875 Z M 275.484375 232.058594 "/></g></g><g clip-rule="nonzero" clip-path="url(#ae2bae1294)"><g clip-rule="nonzero" clip-path="url(#c19ce86685)"><path style=" stroke:none;fill-rule:nonzero;fill:#481c4b;fill-opacity:1;" d="M 275.484375 232.058594 L 228.691406 232.058594 L 228.691406 151.546875 L 275.484375 151.546875 Z M 275.484375 232.058594 "/></g></g></g></svg>