<svg xmlns="http://www.w3.org/2000/svg" xmlns:xlink="http://www.w3.org/1999/xlink" width="500" zoomAndPan="magnify" viewBox="0 0 375 374.999991" height="500" preserveAspectRatio="xMidYMid meet" version="1.2"><defs><clipPath id="0a3e50711d"><path d="M 294.292969 186.144531 L 316.878906 186.144531 L 316.878906 197.4375 L 294.292969 197.4375 Z M 294.292969 186.144531 "/></clipPath><clipPath id="97aa3100e4"><path d="M 294.296875 191.8125 C 294.296875 188.707031 296.8125 186.1875 299.921875 186.1875 L 311.160156 186.1875 C 314.261719 186.1875 316.832031 188.671875 316.855469 191.773438 C 316.878906 194.898438 314.351562 197.4375 311.230469 197.4375 L 299.921875 197.4375 C 296.816406 197.4375 294.296875 194.917969 294.296875 191.8125 "/></clipPath><clipPath id="6bcc92d076"><path d="M 294.296875 200.695312 L 306.988281 200.695312 L 306.988281 221.378906 L 294.296875 221.378906 Z M 294.296875 200.695312 "/></clipPath><clipPath id="d2fbd153cc"><path d="M 294.296875 212.324219 L 294.296875 200.734375 L 305.308594 211.742188 C 307.503906 213.941406 307.503906 217.5 305.308594 219.699219 C 303.113281 221.894531 299.546875 221.894531 297.351562 219.699219 C 295.398438 217.742188 294.296875 215.089844 294.296875 212.324219 "/></clipPath><clipPath id="6c014b3117"><path d="M 294.296875 162.261719 L 306.988281 162.261719 L 306.988281 182.894531 L 294.296875 182.894531 Z M 294.296875 162.261719 "/></clipPath><clipPath id="20a4058850"><path d="M 294.296875 182.894531 L 294.296875 171.308594 C 294.296875 168.542969 295.398438 165.886719 297.351562 163.929688 C 299.546875 161.734375 303.109375 161.734375 305.308594 163.933594 C 307.507812 166.128906 307.503906 169.6875 305.308594 171.886719 Z M 294.296875 182.894531 "/></clipPath><clipPath id="1b5967e660"><path d="M 271.703125 210 L 283.046875 210 L 283.046875 231.273438 L 271.703125 231.273438 Z M 271.703125 210 "/></clipPath><clipPath id="920d2d4e90"><path d="M 271.796875 225.550781 C 271.796875 222.832031 272.878906 220.222656 274.804688 218.296875 L 283.046875 210.054688 L 283.046875 225.625 C 283.046875 228.746094 280.503906 231.273438 277.378906 231.246094 C 274.277344 231.222656 271.796875 228.652344 271.796875 225.550781 "/></clipPath><clipPath id="dcc091a64e"><path d="M 271.703125 152.332031 L 283.046875 152.332031 L 283.046875 173.605469 L 271.703125 173.605469 Z M 271.703125 152.332031 "/></clipPath><clipPath id="25ec1deb68"><path d="M 274.851562 165.382812 C 272.894531 163.425781 271.796875 160.773438 271.796875 158.007812 C 271.796875 155.113281 273.980469 152.734375 276.789062 152.417969 C 276.789062 152.417969 276.789062 152.417969 276.792969 152.417969 C 277.003906 152.414062 277.214844 152.414062 277.421875 152.414062 C 277.632812 152.414062 277.84375 152.414062 278.054688 152.417969 C 278.054688 152.417969 278.058594 152.417969 278.058594 152.417969 C 280.863281 152.730469 283.046875 155.113281 283.046875 158.003906 L 283.046875 173.578125 Z M 274.851562 165.382812 "/></clipPath><clipPath id="32b0076e34"><path d="M 237.984375 162.261719 L 283.046875 162.261719 L 283.046875 221.347656 L 237.984375 221.347656 Z M 237.984375 162.261719 "/></clipPath><clipPath id="93a7493481"><path d="M 237.996094 192.109375 C 237.828125 188.878906 240.472656 186.191406 243.710938 186.191406 L 263.792969 186.191406 C 263.8125 186.191406 263.820312 186.167969 263.808594 186.15625 L 249.535156 171.886719 C 247.339844 169.691406 247.339844 166.128906 249.539062 163.929688 C 251.726562 161.746094 255.257812 161.734375 257.457031 163.894531 C 257.472656 163.90625 257.480469 163.917969 257.492188 163.929688 L 257.496094 163.929688 C 257.507812 163.941406 257.519531 163.953125 257.53125 163.964844 L 271.796875 178.234375 L 271.796875 178.238281 L 277.421875 183.859375 L 279.75 186.191406 L 279.753906 186.191406 L 281.402344 187.839844 C 282.453125 188.894531 283.046875 190.324219 283.046875 191.816406 C 283.046875 193.308594 282.453125 194.734375 281.402344 195.792969 L 279.753906 197.441406 L 277.421875 199.769531 L 257.527344 219.664062 L 257.492188 219.695312 L 257.457031 219.730469 C 255.257812 221.894531 251.722656 221.882812 249.535156 219.695312 C 247.339844 217.5 247.339844 213.9375 249.535156 211.742188 L 263.808594 197.472656 C 263.820312 197.457031 263.808594 197.4375 263.792969 197.4375 L 243.613281 197.4375 C 240.605469 197.4375 238.152344 195.078125 237.996094 192.109375 "/></clipPath></defs><g id="c34c7af61b"><g style="fill:#481c4b;fill-opacity:1;"><g transform="translate(61.35619, 202.84635)"><path style="stroke:none" d="M 20.546875 -20.28125 C 21.066406 -19.632812 21.453125 -18.75 21.703125 -17.625 C 21.816406 -17.101562 21.90625 -16.519531 21.96875 -15.875 C 22.03125 -15.226562 22.0625 -14.535156 22.0625 -13.796875 L 22.0625 -8.453125 C 22.0625 -7.691406 22.03125 -6.988281 21.96875 -6.34375 C 21.90625 -5.695312 21.816406 -5.113281 21.703125 -4.59375 C 21.453125 -3.488281 21.066406 -2.597656 20.546875 -1.921875 C 19.984375 -1.210938 19.28125 -0.71875 18.4375 -0.4375 C 17.570312 -0.125 16.554688 0.03125 15.390625 0.03125 L 8.796875 0.03125 C 7.609375 0.03125 6.601562 -0.125 5.78125 -0.4375 C 4.9375 -0.71875 4.234375 -1.21875 3.671875 -1.9375 C 3.128906 -2.644531 2.742188 -3.53125 2.515625 -4.59375 C 2.390625 -5.113281 2.296875 -5.695312 2.234375 -6.34375 C 2.179688 -6.988281 2.15625 -7.691406 2.15625 -8.453125 L 2.15625 -13.796875 C 2.15625 -15.347656 2.273438 -16.625 2.515625 -17.625 C 2.742188 -18.6875 3.128906 -19.570312 3.671875 -20.28125 C 4.234375 -20.957031 4.9375 -21.457031 5.78125 -21.78125 C 6.644531 -22.09375 7.648438 -22.25 8.796875 -22.25 L 15.390625 -22.25 C 16.554688 -22.25 17.570312 -22.09375 18.4375 -21.78125 C 19.28125 -21.457031 19.984375 -20.957031 20.546875 -20.28125 Z M 18.03125 -14.25 C 18.03125 -14.644531 18.019531 -15.007812 18 -15.34375 C 17.988281 -15.675781 17.957031 -15.976562 17.90625 -16.25 C 17.832031 -16.757812 17.675781 -17.164062 17.4375 -17.46875 C 17.257812 -17.71875 16.988281 -17.914062 16.625 -18.0625 C 16.445312 -18.113281 16.242188 -18.15625 16.015625 -18.1875 C 15.796875 -18.226562 15.539062 -18.25 15.25 -18.25 L 8.9375 -18.25 C 8.644531 -18.25 8.382812 -18.226562 8.15625 -18.1875 C 7.9375 -18.15625 7.738281 -18.113281 7.5625 -18.0625 C 7.195312 -17.914062 6.925781 -17.71875 6.75 -17.46875 C 6.644531 -17.320312 6.554688 -17.144531 6.484375 -16.9375 C 6.410156 -16.726562 6.347656 -16.5 6.296875 -16.25 C 6.253906 -15.976562 6.21875 -15.675781 6.1875 -15.34375 C 6.164062 -15.007812 6.15625 -14.644531 6.15625 -14.25 L 6.15625 -7.96875 C 6.15625 -7.570312 6.164062 -7.207031 6.1875 -6.875 C 6.21875 -6.539062 6.253906 -6.238281 6.296875 -5.96875 C 6.347656 -5.726562 6.410156 -5.503906 6.484375 -5.296875 C 6.554688 -5.097656 6.644531 -4.925781 6.75 -4.78125 C 6.925781 -4.488281 7.195312 -4.289062 7.5625 -4.1875 C 7.882812 -4.0625 8.34375 -4 8.9375 -4 L 15.25 -4 C 15.84375 -4 16.300781 -4.0625 16.625 -4.1875 C 16.988281 -4.289062 17.257812 -4.488281 17.4375 -4.78125 C 17.65625 -5.050781 17.8125 -5.445312 17.90625 -5.96875 C 17.957031 -6.238281 17.988281 -6.539062 18 -6.875 C 18.019531 -7.207031 18.03125 -7.570312 18.03125 -7.96875 Z M 18.03125 -14.25 "/></g></g><g style="fill:#481c4b;fill-opacity:1;"><g transform="translate(86.925196, 202.84635)"><path style="stroke:none" d="M 20.578125 -15.796875 L 20.578125 -15.640625 C 20.578125 -15.648438 20.578125 -15.660156 20.578125 -15.671875 C 20.578125 -15.679688 20.578125 -15.695312 20.578125 -15.71875 C 20.578125 -15.726562 20.578125 -15.738281 20.578125 -15.75 C 20.578125 -15.757812 20.578125 -15.773438 20.578125 -15.796875 Z M 21.09375 -1.15625 C 21.195312 -1.007812 21.226562 -0.796875 21.1875 -0.515625 C 21.132812 -0.148438 20.929688 0.03125 20.578125 0.03125 L 17.609375 0.03125 C 17.367188 0.03125 17.175781 -0.0234375 17.03125 -0.140625 C 16.976562 -0.171875 16.929688 -0.222656 16.890625 -0.296875 C 16.847656 -0.367188 16.796875 -0.441406 16.734375 -0.515625 L 11.859375 -9.1875 L 6.15625 -9.1875 L 6.15625 -0.921875 C 6.15625 -0.503906 6.0625 -0.238281 5.875 -0.125 C 5.6875 -0.0195312 5.53125 0.03125 5.40625 0.03125 L 2.9375 0.03125 C 2.8125 0.03125 2.648438 -0.0195312 2.453125 -0.125 C 2.253906 -0.238281 2.15625 -0.503906 2.15625 -0.921875 L 2.15625 -12.265625 C 2.15625 -12.671875 2.253906 -12.921875 2.453125 -13.015625 C 2.648438 -13.117188 2.8125 -13.171875 2.9375 -13.171875 L 14.6875 -13.171875 C 15.375 -13.171875 15.851562 -13.367188 16.125 -13.765625 C 16.40625 -14.160156 16.546875 -14.8125 16.546875 -15.71875 C 16.546875 -16.613281 16.40625 -17.257812 16.125 -17.65625 C 15.851562 -18.050781 15.375 -18.25 14.6875 -18.25 L 2.9375 -18.25 C 2.8125 -18.25 2.648438 -18.296875 2.453125 -18.390625 C 2.253906 -18.492188 2.15625 -18.753906 2.15625 -19.171875 L 2.15625 -21.296875 C 2.15625 -21.734375 2.253906 -22 2.453125 -22.09375 C 2.648438 -22.195312 2.8125 -22.25 2.9375 -22.25 L 15.390625 -22.25 C 17.242188 -22.25 18.578125 -21.671875 19.390625 -20.515625 C 20.160156 -19.398438 20.554688 -17.800781 20.578125 -15.71875 C 20.554688 -13.625 20.160156 -12.019531 19.390625 -10.90625 C 18.703125 -9.96875 17.691406 -9.421875 16.359375 -9.265625 Z M 21.09375 -1.15625 "/></g></g><g style="fill:#481c4b;fill-opacity:1;"><g transform="translate(111.657204, 202.84635)"><path style="stroke:none" d="M 5.40625 -22.25 C 5.507812 -22.25 5.660156 -22.191406 5.859375 -22.078125 C 6.054688 -21.972656 6.15625 -21.710938 6.15625 -21.296875 L 6.15625 -0.921875 C 6.15625 -0.503906 6.054688 -0.238281 5.859375 -0.125 C 5.660156 -0.0195312 5.507812 0.03125 5.40625 0.03125 L 2.921875 0.03125 C 2.804688 0.03125 2.648438 -0.0195312 2.453125 -0.125 C 2.253906 -0.238281 2.15625 -0.503906 2.15625 -0.921875 L 2.15625 -21.296875 C 2.15625 -21.710938 2.253906 -21.972656 2.453125 -22.078125 C 2.648438 -22.191406 2.804688 -22.25 2.921875 -22.25 Z M 5.40625 -22.25 "/></g></g><g style="fill:#481c4b;fill-opacity:1;"><g transform="translate(121.323204, 202.84635)"><path style="stroke:none" d="M 18.390625 -4.828125 C 18.515625 -4.828125 18.675781 -4.773438 18.875 -4.671875 C 19.070312 -4.578125 19.171875 -4.328125 19.171875 -3.921875 L 19.171875 -0.9375 C 19.171875 -0.53125 19.070312 -0.273438 18.875 -0.171875 C 18.675781 -0.078125 18.515625 -0.03125 18.390625 -0.03125 L 8.796875 -0.03125 C 8.203125 -0.03125 7.65625 -0.0664062 7.15625 -0.140625 C 6.65625 -0.210938 6.195312 -0.328125 5.78125 -0.484375 C 4.894531 -0.785156 4.191406 -1.28125 3.671875 -1.96875 C 3.128906 -2.675781 2.742188 -3.554688 2.515625 -4.609375 C 2.421875 -5.066406 2.34375 -5.5625 2.28125 -6.09375 C 2.21875 -6.632812 2.175781 -7.222656 2.15625 -7.859375 L 2.15625 -7.984375 L 2.21875 -11.390625 C 2.269531 -11.585938 2.367188 -11.8125 2.515625 -12.0625 C 2.910156 -12.769531 3.519531 -13.148438 4.34375 -13.203125 L 18.28125 -13.234375 C 18.382812 -13.234375 18.535156 -13.179688 18.734375 -13.078125 C 18.929688 -12.984375 19.03125 -12.726562 19.03125 -12.3125 L 19.03125 -10.171875 C 19.03125 -9.765625 18.929688 -9.503906 18.734375 -9.390625 C 18.535156 -9.285156 18.382812 -9.234375 18.28125 -9.234375 L 6.203125 -9.234375 C 6.203125 -9.234375 6.195312 -9.132812 6.1875 -8.9375 C 6.1875 -8.738281 6.179688 -8.515625 6.171875 -8.265625 C 6.160156 -8.015625 6.15625 -7.789062 6.15625 -7.59375 C 6.15625 -7.394531 6.15625 -7.296875 6.15625 -7.296875 C 6.175781 -7.222656 6.1875 -7.144531 6.1875 -7.0625 C 6.1875 -6.976562 6.191406 -6.898438 6.203125 -6.828125 C 6.273438 -6.328125 6.429688 -5.921875 6.671875 -5.609375 C 6.890625 -5.347656 7.160156 -5.148438 7.484375 -5.015625 C 7.679688 -4.960938 7.890625 -4.914062 8.109375 -4.875 C 8.335938 -4.84375 8.597656 -4.828125 8.890625 -4.828125 Z M 4.53125 -12.984375 Z M 18.40625 -22.296875 C 18.519531 -22.296875 18.675781 -22.242188 18.875 -22.140625 C 19.070312 -22.035156 19.171875 -21.773438 19.171875 -21.359375 L 19.171875 -19.21875 C 19.171875 -18.8125 19.070312 -18.550781 18.875 -18.4375 C 18.675781 -18.332031 18.519531 -18.28125 18.40625 -18.28125 L 2.890625 -18.3125 C 2.785156 -18.3125 2.632812 -18.359375 2.4375 -18.453125 C 2.25 -18.554688 2.15625 -18.8125 2.15625 -19.21875 L 2.15625 -21.328125 C 2.15625 -21.765625 2.25 -22.035156 2.4375 -22.140625 C 2.632812 -22.242188 2.785156 -22.296875 2.890625 -22.296875 Z M 18.40625 -22.296875 "/></g></g><g style="fill:#481c4b;fill-opacity:1;"><g transform="translate(144.003206, 202.84635)"><path style="stroke:none" d="M 21.28125 -22.25 C 21.382812 -22.25 21.535156 -22.195312 21.734375 -22.09375 C 21.929688 -22 22.03125 -21.734375 22.03125 -21.296875 L 22.03125 -3.453125 C 22.03125 -2.140625 21.84375 -1.238281 21.46875 -0.75 C 21.082031 -0.226562 20.492188 0.03125 19.703125 0.03125 L 17.734375 0.03125 C 17.378906 0.03125 17.078125 0.00390625 16.828125 -0.046875 C 16.691406 -0.0859375 16.5625 -0.128906 16.4375 -0.171875 C 16.3125 -0.222656 16.195312 -0.28125 16.09375 -0.34375 C 15.875 -0.476562 15.675781 -0.675781 15.5 -0.9375 C 15.40625 -1.070312 15.300781 -1.21875 15.1875 -1.375 C 15.082031 -1.539062 14.976562 -1.726562 14.875 -1.9375 L 6.3125 -17.125 C 6.300781 -17.15625 6.285156 -17.175781 6.265625 -17.1875 C 6.242188 -17.195312 6.234375 -17.203125 6.234375 -17.203125 L 6.109375 -17.203125 C 6.109375 -17.203125 6.109375 -17.195312 6.109375 -17.1875 C 6.109375 -17.175781 6.109375 -17.160156 6.109375 -17.140625 L 6.109375 -0.921875 C 6.109375 -0.503906 6.007812 -0.238281 5.8125 -0.125 C 5.625 -0.0195312 5.46875 0.03125 5.34375 0.03125 L 2.9375 0.03125 C 2.8125 0.03125 2.648438 -0.0195312 2.453125 -0.125 C 2.253906 -0.238281 2.15625 -0.503906 2.15625 -0.921875 L 2.15625 -18.765625 C 2.15625 -20.078125 2.347656 -20.984375 2.734375 -21.484375 C 3.128906 -21.992188 3.710938 -22.25 4.484375 -22.25 L 6.5 -22.25 C 6.6875 -22.25 6.859375 -22.242188 7.015625 -22.234375 C 7.179688 -22.222656 7.328125 -22.207031 7.453125 -22.1875 C 7.742188 -22.132812 7.992188 -22.03125 8.203125 -21.875 C 8.390625 -21.75 8.582031 -21.539062 8.78125 -21.25 C 8.863281 -21.125 8.953125 -20.976562 9.046875 -20.8125 C 9.148438 -20.65625 9.257812 -20.476562 9.375 -20.28125 L 17.90625 -5.109375 C 17.914062 -5.046875 17.941406 -5.015625 17.984375 -5.015625 L 18.109375 -5.015625 C 18.109375 -5.035156 18.109375 -5.046875 18.109375 -5.046875 C 18.109375 -5.046875 18.109375 -5.054688 18.109375 -5.078125 L 18.109375 -21.296875 C 18.109375 -21.734375 18.203125 -22 18.390625 -22.09375 C 18.585938 -22.195312 18.75 -22.25 18.875 -22.25 Z M 21.28125 -22.25 "/></g></g><g style="fill:#481c4b;fill-opacity:1;"><g transform="translate(169.545216, 202.84635)"><path style="stroke:none" d="M 20.8125 -22.25 C 20.9375 -22.25 21.097656 -22.195312 21.296875 -22.09375 C 21.492188 -22 21.59375 -21.742188 21.59375 -21.328125 L 21.59375 -19.21875 C 21.59375 -18.769531 21.492188 -18.492188 21.296875 -18.390625 C 21.097656 -18.296875 20.9375 -18.25 20.8125 -18.25 L 13.875 -18.25 L 13.875 -0.921875 C 13.875 -0.503906 13.78125 -0.242188 13.59375 -0.140625 C 13.40625 -0.046875 13.25 0 13.125 0 L 10.640625 0 C 10.523438 0 10.367188 -0.046875 10.171875 -0.140625 C 9.972656 -0.242188 9.875 -0.503906 9.875 -0.921875 L 9.875 -18.25 L 2.9375 -18.25 C 2.8125 -18.25 2.648438 -18.296875 2.453125 -18.390625 C 2.253906 -18.492188 2.15625 -18.769531 2.15625 -19.21875 L 2.15625 -21.328125 C 2.15625 -21.742188 2.253906 -22 2.453125 -22.09375 C 2.648438 -22.195312 2.8125 -22.25 2.9375 -22.25 Z M 20.8125 -22.25 "/></g></g><g style="fill:#481c4b;fill-opacity:1;"><g transform="translate(194.655222, 202.84635)"><path style="stroke:none" d="M 5.40625 -22.25 C 5.507812 -22.25 5.660156 -22.191406 5.859375 -22.078125 C 6.054688 -21.972656 6.15625 -21.710938 6.15625 -21.296875 L 6.15625 -0.921875 C 6.15625 -0.503906 6.054688 -0.238281 5.859375 -0.125 C 5.660156 -0.0195312 5.507812 0.03125 5.40625 0.03125 L 2.921875 0.03125 C 2.804688 0.03125 2.648438 -0.0195312 2.453125 -0.125 C 2.253906 -0.238281 2.15625 -0.503906 2.15625 -0.921875 L 2.15625 -21.296875 C 2.15625 -21.710938 2.253906 -21.972656 2.453125 -22.078125 C 2.648438 -22.191406 2.804688 -22.25 2.921875 -22.25 Z M 5.40625 -22.25 "/></g></g><g style="fill:#481c4b;fill-opacity:1;"><g transform="translate(204.321222, 202.84635)"><path style="stroke:none" d="M 16.625 -19.734375 L 24.21875 -1.03125 C 24.320312 -0.769531 24.347656 -0.550781 24.296875 -0.375 C 24.273438 -0.300781 24.222656 -0.210938 24.140625 -0.109375 C 24.066406 -0.015625 23.921875 0.03125 23.703125 0.03125 L 20.8125 0.03125 C 20.4375 0.03125 20.175781 -0.164062 20.03125 -0.5625 L 13.34375 -17.28125 C 13.320312 -17.3125 13.3125 -17.328125 13.3125 -17.328125 L 13.203125 -17.328125 C 13.203125 -17.328125 13.195312 -17.320312 13.1875 -17.3125 C 13.175781 -17.3125 13.164062 -17.289062 13.15625 -17.25 L 9.6875 -8.5 L 13.046875 -8.5 C 13.421875 -8.5 13.679688 -8.320312 13.828125 -7.96875 L 14.796875 -5.5625 C 14.890625 -5.257812 14.851562 -5 14.6875 -4.78125 C 14.539062 -4.53125 14.304688 -4.40625 13.984375 -4.40625 L 8.078125 -4.40625 L 6.53125 -0.546875 C 6.382812 -0.160156 6.132812 0.03125 5.78125 0.03125 L 2.8125 0.03125 C 2.59375 0.03125 2.441406 -0.015625 2.359375 -0.109375 C 2.273438 -0.210938 2.226562 -0.300781 2.21875 -0.375 C 2.164062 -0.539062 2.179688 -0.757812 2.265625 -1.03125 L 9.796875 -19.734375 C 10.160156 -20.691406 10.554688 -21.347656 10.984375 -21.703125 C 11.035156 -21.742188 11.097656 -21.789062 11.171875 -21.84375 C 11.242188 -21.894531 11.316406 -21.941406 11.390625 -21.984375 C 11.929688 -22.359375 12.550781 -22.546875 13.25 -22.546875 C 13.988281 -22.546875 14.65625 -22.316406 15.25 -21.859375 C 15.84375 -21.410156 16.25 -20.835938 16.46875 -20.140625 C 16.507812 -20.085938 16.539062 -20.023438 16.5625 -19.953125 C 16.59375 -19.878906 16.613281 -19.804688 16.625 -19.734375 Z M 16.625 -19.734375 "/></g></g><g clip-rule="nonzero" clip-path="url(#0a3e50711d)"><g clip-rule="nonzero" clip-path="url(#97aa3100e4)"><path style=" stroke:none;fill-rule:nonzero;fill:#481c4b;fill-opacity:1;" d="M 316.878906 197.4375 L 294.292969 197.4375 L 294.292969 186.191406 L 316.878906 186.191406 Z M 316.878906 197.4375 "/></g></g><g clip-rule="nonzero" clip-path="url(#6bcc92d076)"><g clip-rule="nonzero" clip-path="url(#d2fbd153cc)"><path style=" stroke:none;fill-rule:nonzero;fill:#efd109;fill-opacity:1;" d="M 307.503906 221.894531 L 294.296875 221.894531 L 294.296875 200.746094 L 307.503906 200.746094 Z M 307.503906 221.894531 "/></g></g><g clip-rule="nonzero" clip-path="url(#6c014b3117)"><g clip-rule="nonzero" clip-path="url(#20a4058850)"><path style=" stroke:none;fill-rule:nonzero;fill:#2dcf42;fill-opacity:1;" d="M 307.503906 182.894531 L 294.296875 182.894531 L 294.296875 161.746094 L 307.503906 161.746094 Z M 307.503906 182.894531 "/></g></g><g clip-rule="nonzero" clip-path="url(#1b5967e660)"><g clip-rule="nonzero" clip-path="url(#920d2d4e90)"><path style=" stroke:none;fill-rule:nonzero;fill:#2bb1eb;fill-opacity:1;" d="M 283.835938 232.058594 L 237.039062 232.058594 L 237.039062 151.546875 L 283.835938 151.546875 Z M 283.835938 232.058594 "/></g></g><g clip-rule="nonzero" clip-path="url(#dcc091a64e)"><g clip-rule="nonzero" clip-path="url(#25ec1deb68)"><path style=" stroke:none;fill-rule:nonzero;fill:#e01d5b;fill-opacity:1;" d="M 283.835938 232.058594 L 237.039062 232.058594 L 237.039062 151.546875 L 283.835938 151.546875 Z M 283.835938 232.058594 "/></g></g><g clip-rule="nonzero" clip-path="url(#32b0076e34)"><g clip-rule="nonzero" clip-path="url(#93a7493481)"><path style=" stroke:none;fill-rule:nonzero;fill:#481c4b;fill-opacity:1;" d="M 283.835938 232.058594 L 237.039062 232.058594 L 237.039062 151.546875 L 283.835938 151.546875 Z M 283.835938 232.058594 "/></g></g></g></svg>