<svg xmlns="http://www.w3.org/2000/svg" xmlns:xlink="http://www.w3.org/1999/xlink" width="500" zoomAndPan="magnify" viewBox="0 0 375 374.999991" height="500" preserveAspectRatio="xMidYMid meet" version="1.2"><defs><clipPath id="8af787a1f6"><path d="M 45 110 L 124.859375 110 L 124.859375 187.496094 L 45 187.496094 Z M 45 110 "/></clipPath><clipPath id="9ad4ad03d0"><path d="M 28.859375 95.246094 L 85 95.246094 L 85 149 L 28.859375 149 Z M 28.859375 95.246094 "/></clipPath></defs><g id="c191f3b462"><g clip-rule="nonzero" clip-path="url(#8af787a1f6)"><path style=" stroke:none;fill-rule:nonzero;fill:#00bf63;fill-opacity:1;" d="M 115.699219 120.746094 C 109.523438 114.136719 100.742188 110.777344 89.605469 110.777344 L 84.296875 110.777344 C 85.273438 114.109375 85.730469 118.039062 85.730469 122.5625 C 85.730469 122.996094 85.730469 123.429688 85.707031 123.863281 L 89.578125 123.863281 C 97.058594 123.863281 102.449219 125.757812 106.136719 129.6875 C 109.875 133.699219 111.769531 140.253906 111.769531 149.222656 C 111.769531 158.113281 109.875 164.613281 106.164062 168.542969 C 102.503906 172.417969 97.058594 174.316406 89.578125 174.316406 L 80.910156 174.316406 C 73.429688 174.316406 68.011719 172.417969 64.328125 168.542969 C 60.667969 164.695312 58.800781 158.355469 58.71875 149.683594 L 52.972656 149.683594 C 50.316406 149.683594 47.878906 149.441406 45.65625 148.925781 C 45.65625 149.007812 45.65625 149.117188 45.65625 149.195312 C 45.65625 161.554688 48.746094 171.0625 54.84375 177.511719 C 61.019531 184.042969 69.800781 187.375 80.910156 187.375 L 89.578125 187.375 C 100.6875 187.375 109.46875 184.070312 115.644531 177.511719 C 121.742188 171.0625 124.832031 161.554688 124.832031 149.195312 C 124.859375 136.8125 121.769531 127.25 115.699219 120.746094 Z M 115.699219 120.746094 "/></g><path style=" stroke:none;fill-rule:nonzero;fill:#00bf63;fill-opacity:1;" d="M 85.730469 123.835938 C 85.542969 132.152344 83.671875 138.304688 79.960938 142.585938 C 75.871094 147.300781 69.746094 149.683594 61.699219 149.683594 L 58.773438 149.683594 C 58.773438 149.523438 58.773438 149.359375 58.773438 149.195312 C 58.773438 144.265625 59.339844 140.066406 60.480469 136.597656 C 61.402344 133.78125 62.699219 131.449219 64.40625 129.660156 C 66.523438 127.386719 69.257812 125.785156 72.617188 124.839844 C 75.054688 124.160156 77.820312 123.808594 80.964844 123.808594 L 85.730469 123.808594 Z M 85.730469 123.835938 "/><g clip-rule="nonzero" clip-path="url(#9ad4ad03d0)"><path style=" stroke:none;fill-rule:nonzero;fill:#00bf63;fill-opacity:1;" d="M 84.296875 110.75 C 83.347656 107.46875 81.9375 104.734375 80.042969 102.484375 C 75.976562 97.6875 69.828125 95.277344 61.671875 95.277344 L 53 95.277344 C 44.871094 95.277344 38.695312 97.6875 34.628906 102.457031 C 30.753906 106.980469 28.859375 113.59375 28.859375 122.617188 C 28.859375 131.613281 30.726562 138.140625 34.574219 142.613281 C 37.3125 145.78125 41.023438 147.898438 45.65625 148.925781 C 45.683594 144.101562 46.171875 139.714844 47.121094 135.757812 C 47.554688 133.941406 48.097656 132.207031 48.746094 130.554688 C 50.238281 126.734375 52.242188 123.457031 54.816406 120.71875 C 58.960938 116.277344 64.273438 113.324219 70.667969 111.832031 C 73.808594 111.101562 77.222656 110.722656 80.910156 110.722656 L 84.296875 110.722656 Z M 84.296875 110.75 "/></g><g style="fill:#0b1320;fill-opacity:1;"><g transform="translate(133.54794, 162.438081)"><path style="stroke:none" d="M 28.765625 -28.390625 C 29.492188 -27.484375 30.035156 -26.25 30.390625 -24.6875 C 30.535156 -23.945312 30.648438 -23.125 30.734375 -22.21875 C 30.828125 -21.3125 30.875 -20.34375 30.875 -19.3125 L 30.875 -11.828125 C 30.875 -10.773438 30.828125 -9.789062 30.734375 -8.875 C 30.648438 -7.96875 30.535156 -7.148438 30.390625 -6.421875 C 30.035156 -4.890625 29.492188 -3.644531 28.765625 -2.6875 C 27.984375 -1.695312 27 -1.003906 25.8125 -0.609375 C 24.601562 -0.179688 23.179688 0.03125 21.546875 0.03125 L 12.328125 0.03125 C 10.660156 0.03125 9.25 -0.179688 8.09375 -0.609375 C 6.90625 -1.003906 5.921875 -1.707031 5.140625 -2.71875 C 4.378906 -3.707031 3.835938 -4.941406 3.515625 -6.421875 C 3.335938 -7.148438 3.210938 -7.96875 3.140625 -8.875 C 3.066406 -9.789062 3.03125 -10.773438 3.03125 -11.828125 L 3.03125 -19.3125 C 3.03125 -21.476562 3.191406 -23.269531 3.515625 -24.6875 C 3.835938 -26.164062 4.378906 -27.398438 5.140625 -28.390625 C 5.921875 -29.347656 6.90625 -30.050781 8.09375 -30.5 C 9.300781 -30.925781 10.710938 -31.140625 12.328125 -31.140625 L 21.546875 -31.140625 C 23.179688 -31.140625 24.601562 -30.925781 25.8125 -30.5 C 27 -30.050781 27.984375 -29.347656 28.765625 -28.390625 Z M 25.25 -19.953125 C 25.25 -20.503906 25.234375 -21.015625 25.203125 -21.484375 C 25.179688 -21.953125 25.132812 -22.375 25.0625 -22.75 C 24.957031 -23.457031 24.742188 -24.023438 24.421875 -24.453125 C 24.160156 -24.804688 23.78125 -25.082031 23.28125 -25.28125 C 23.03125 -25.363281 22.742188 -25.425781 22.421875 -25.46875 C 22.109375 -25.519531 21.753906 -25.546875 21.359375 -25.546875 L 12.515625 -25.546875 C 12.109375 -25.546875 11.75 -25.519531 11.4375 -25.46875 C 11.125 -25.425781 10.835938 -25.363281 10.578125 -25.28125 C 10.078125 -25.082031 9.703125 -24.804688 9.453125 -24.453125 C 9.296875 -24.253906 9.164062 -24.007812 9.0625 -23.71875 C 8.96875 -23.425781 8.882812 -23.101562 8.8125 -22.75 C 8.757812 -22.375 8.710938 -21.953125 8.671875 -21.484375 C 8.640625 -21.015625 8.625 -20.503906 8.625 -19.953125 L 8.625 -11.15625 C 8.625 -10.59375 8.640625 -10.078125 8.671875 -9.609375 C 8.710938 -9.148438 8.757812 -8.734375 8.8125 -8.359375 C 8.882812 -8.023438 8.96875 -7.710938 9.0625 -7.421875 C 9.164062 -7.140625 9.296875 -6.894531 9.453125 -6.6875 C 9.703125 -6.28125 10.078125 -6.003906 10.578125 -5.859375 C 11.035156 -5.679688 11.679688 -5.59375 12.515625 -5.59375 L 21.359375 -5.59375 C 22.191406 -5.59375 22.832031 -5.679688 23.28125 -5.859375 C 23.78125 -6.003906 24.160156 -6.28125 24.421875 -6.6875 C 24.722656 -7.0625 24.9375 -7.617188 25.0625 -8.359375 C 25.132812 -8.734375 25.179688 -9.148438 25.203125 -9.609375 C 25.234375 -10.078125 25.25 -10.59375 25.25 -11.15625 Z M 25.25 -19.953125 "/></g></g><g style="fill:#0b1320;fill-opacity:1;"><g transform="translate(167.145331, 162.438081)"><path style="stroke:none" d="M 28.796875 -22.109375 L 28.796875 -21.890625 C 28.796875 -21.910156 28.796875 -21.925781 28.796875 -21.9375 C 28.796875 -21.945312 28.796875 -21.96875 28.796875 -22 C 28.796875 -22.019531 28.796875 -22.035156 28.796875 -22.046875 C 28.796875 -22.066406 28.796875 -22.085938 28.796875 -22.109375 Z M 29.515625 -1.625 C 29.671875 -1.425781 29.722656 -1.125 29.671875 -0.71875 C 29.597656 -0.21875 29.304688 0.03125 28.796875 0.03125 L 24.640625 0.03125 C 24.316406 0.03125 24.050781 -0.0390625 23.84375 -0.1875 C 23.769531 -0.238281 23.703125 -0.3125 23.640625 -0.40625 C 23.578125 -0.507812 23.507812 -0.613281 23.4375 -0.71875 L 16.59375 -12.84375 L 8.625 -12.84375 L 8.625 -1.28125 C 8.625 -0.707031 8.488281 -0.34375 8.21875 -0.1875 C 7.957031 -0.0390625 7.738281 0.03125 7.5625 0.03125 L 4.125 0.03125 C 3.945312 0.03125 3.71875 -0.0390625 3.4375 -0.1875 C 3.164062 -0.34375 3.03125 -0.707031 3.03125 -1.28125 L 3.03125 -17.15625 C 3.03125 -17.738281 3.164062 -18.097656 3.4375 -18.234375 C 3.71875 -18.367188 3.945312 -18.4375 4.125 -18.4375 L 20.5625 -18.4375 C 21.519531 -18.4375 22.1875 -18.71875 22.5625 -19.28125 C 22.96875 -19.832031 23.171875 -20.738281 23.171875 -22 C 23.171875 -23.257812 22.96875 -24.164062 22.5625 -24.71875 C 22.1875 -25.269531 21.519531 -25.546875 20.5625 -25.546875 L 4.125 -25.546875 C 3.945312 -25.546875 3.71875 -25.613281 3.4375 -25.75 C 3.164062 -25.894531 3.03125 -26.253906 3.03125 -26.828125 L 3.03125 -29.828125 C 3.03125 -30.429688 3.164062 -30.800781 3.4375 -30.9375 C 3.71875 -31.070312 3.945312 -31.140625 4.125 -31.140625 L 21.546875 -31.140625 C 24.140625 -31.140625 26.003906 -30.332031 27.140625 -28.71875 C 28.222656 -27.15625 28.773438 -24.914062 28.796875 -22 C 28.773438 -19.070312 28.222656 -16.828125 27.140625 -15.265625 C 26.179688 -13.953125 24.769531 -13.1875 22.90625 -12.96875 Z M 29.515625 -1.625 "/></g></g><g style="fill:#0b1320;fill-opacity:1;"><g transform="translate(199.571133, 162.438081)"><path style="stroke:none" d="M 7.5625 -31.140625 C 7.707031 -31.140625 7.921875 -31.0625 8.203125 -30.90625 C 8.484375 -30.757812 8.625 -30.398438 8.625 -29.828125 L 8.625 -1.28125 C 8.625 -0.707031 8.484375 -0.34375 8.203125 -0.1875 C 7.921875 -0.0390625 7.707031 0.03125 7.5625 0.03125 L 4.078125 0.03125 C 3.929688 0.03125 3.71875 -0.0390625 3.4375 -0.1875 C 3.164062 -0.34375 3.03125 -0.707031 3.03125 -1.28125 L 3.03125 -29.828125 C 3.03125 -30.398438 3.164062 -30.757812 3.4375 -30.90625 C 3.71875 -31.0625 3.929688 -31.140625 4.078125 -31.140625 Z M 7.5625 -31.140625 "/></g></g><g style="fill:#0b1320;fill-opacity:1;"><g transform="translate(210.908417, 162.438081)"><path style="stroke:none" d="M 25.734375 -6.765625 C 25.910156 -6.765625 26.132812 -6.691406 26.40625 -6.546875 C 26.6875 -6.410156 26.828125 -6.054688 26.828125 -5.484375 L 26.828125 -1.328125 C 26.828125 -0.742188 26.6875 -0.378906 26.40625 -0.234375 C 26.132812 -0.0976562 25.910156 -0.03125 25.734375 -0.03125 L 12.328125 -0.03125 C 11.492188 -0.03125 10.722656 -0.0820312 10.015625 -0.1875 C 9.304688 -0.289062 8.664062 -0.457031 8.09375 -0.6875 C 6.851562 -1.113281 5.867188 -1.804688 5.140625 -2.765625 C 4.378906 -3.742188 3.835938 -4.976562 3.515625 -6.46875 C 3.390625 -7.09375 3.28125 -7.78125 3.1875 -8.53125 C 3.101562 -9.289062 3.050781 -10.113281 3.03125 -11 L 3.03125 -11.1875 L 3.09375 -15.953125 C 3.175781 -16.222656 3.316406 -16.535156 3.515625 -16.890625 C 4.066406 -17.878906 4.921875 -18.410156 6.078125 -18.484375 L 25.59375 -18.515625 C 25.738281 -18.515625 25.945312 -18.445312 26.21875 -18.3125 C 26.5 -18.175781 26.640625 -17.816406 26.640625 -17.234375 L 26.640625 -14.25 C 26.640625 -13.664062 26.5 -13.296875 26.21875 -13.140625 C 25.945312 -12.992188 25.738281 -12.921875 25.59375 -12.921875 L 8.6875 -12.921875 C 8.6875 -12.921875 8.679688 -12.78125 8.671875 -12.5 C 8.660156 -12.226562 8.648438 -11.914062 8.640625 -11.5625 C 8.628906 -11.207031 8.625 -10.890625 8.625 -10.609375 C 8.625 -10.335938 8.625 -10.203125 8.625 -10.203125 C 8.644531 -10.097656 8.65625 -9.988281 8.65625 -9.875 C 8.65625 -9.769531 8.664062 -9.664062 8.6875 -9.5625 C 8.789062 -8.851562 9.003906 -8.285156 9.328125 -7.859375 C 9.640625 -7.484375 10.019531 -7.207031 10.46875 -7.03125 C 10.75 -6.957031 11.046875 -6.894531 11.359375 -6.84375 C 11.671875 -6.789062 12.03125 -6.765625 12.4375 -6.765625 Z M 6.34375 -18.1875 Z M 25.78125 -31.21875 C 25.925781 -31.21875 26.132812 -31.140625 26.40625 -30.984375 C 26.6875 -30.835938 26.828125 -30.472656 26.828125 -29.890625 L 26.828125 -26.90625 C 26.828125 -26.332031 26.6875 -25.96875 26.40625 -25.8125 C 26.132812 -25.664062 25.925781 -25.59375 25.78125 -25.59375 L 4.046875 -25.625 C 3.890625 -25.625 3.679688 -25.691406 3.421875 -25.828125 C 3.160156 -25.972656 3.03125 -26.332031 3.03125 -26.90625 L 3.03125 -29.859375 C 3.03125 -30.460938 3.160156 -30.835938 3.421875 -30.984375 C 3.679688 -31.140625 3.890625 -31.21875 4.046875 -31.21875 Z M 25.78125 -31.21875 "/></g></g><g style="fill:#0b1320;fill-opacity:1;"><g transform="translate(240.461947, 162.438081)"><path style="stroke:none" d="M 29.78125 -31.140625 C 29.9375 -31.140625 30.148438 -31.070312 30.421875 -30.9375 C 30.703125 -30.800781 30.84375 -30.429688 30.84375 -29.828125 L 30.84375 -4.84375 C 30.84375 -3 30.578125 -1.738281 30.046875 -1.0625 C 29.515625 -0.332031 28.695312 0.03125 27.59375 0.03125 L 24.828125 0.03125 C 24.328125 0.03125 23.898438 -0.00390625 23.546875 -0.078125 C 23.367188 -0.128906 23.191406 -0.1875 23.015625 -0.25 C 22.835938 -0.3125 22.675781 -0.390625 22.53125 -0.484375 C 22.226562 -0.660156 21.953125 -0.941406 21.703125 -1.328125 C 21.566406 -1.503906 21.421875 -1.703125 21.265625 -1.921875 C 21.117188 -2.148438 20.972656 -2.414062 20.828125 -2.71875 L 8.84375 -23.96875 C 8.820312 -24.007812 8.796875 -24.035156 8.765625 -24.046875 C 8.742188 -24.066406 8.734375 -24.078125 8.734375 -24.078125 L 8.546875 -24.078125 C 8.546875 -24.078125 8.546875 -24.066406 8.546875 -24.046875 C 8.546875 -24.035156 8.546875 -24.019531 8.546875 -24 L 8.546875 -1.28125 C 8.546875 -0.707031 8.410156 -0.34375 8.140625 -0.1875 C 7.878906 -0.0390625 7.660156 0.03125 7.484375 0.03125 L 4.125 0.03125 C 3.945312 0.03125 3.71875 -0.0390625 3.4375 -0.1875 C 3.164062 -0.34375 3.03125 -0.707031 3.03125 -1.28125 L 3.03125 -26.265625 C 3.03125 -28.109375 3.289062 -29.382812 3.8125 -30.09375 C 4.375 -30.789062 5.195312 -31.140625 6.28125 -31.140625 L 9.109375 -31.140625 C 9.359375 -31.140625 9.597656 -31.132812 9.828125 -31.125 C 10.054688 -31.113281 10.257812 -31.09375 10.4375 -31.0625 C 10.832031 -30.988281 11.179688 -30.835938 11.484375 -30.609375 C 11.742188 -30.429688 12.007812 -30.144531 12.28125 -29.75 C 12.40625 -29.570312 12.535156 -29.367188 12.671875 -29.140625 C 12.816406 -28.910156 12.960938 -28.660156 13.109375 -28.390625 L 25.0625 -7.140625 C 25.082031 -7.066406 25.117188 -7.03125 25.171875 -7.03125 L 25.359375 -7.03125 C 25.359375 -7.050781 25.359375 -7.0625 25.359375 -7.0625 C 25.359375 -7.0625 25.359375 -7.078125 25.359375 -7.109375 L 25.359375 -29.828125 C 25.359375 -30.429688 25.488281 -30.800781 25.75 -30.9375 C 26.019531 -31.070312 26.242188 -31.140625 26.421875 -31.140625 Z M 29.78125 -31.140625 "/></g></g><g style="fill:#0b1320;fill-opacity:1;"><g transform="translate(274.021537, 162.438081)"><path style="stroke:none" d="M 29.140625 -31.140625 C 29.316406 -31.140625 29.539062 -31.070312 29.8125 -30.9375 C 30.09375 -30.800781 30.234375 -30.441406 30.234375 -29.859375 L 30.234375 -26.90625 C 30.234375 -26.28125 30.09375 -25.894531 29.8125 -25.75 C 29.539062 -25.613281 29.316406 -25.546875 29.140625 -25.546875 L 19.421875 -25.546875 L 19.421875 -1.28125 C 19.421875 -0.707031 19.289062 -0.347656 19.03125 -0.203125 C 18.769531 -0.0664062 18.550781 0 18.375 0 L 14.890625 0 C 14.742188 0 14.53125 -0.0664062 14.25 -0.203125 C 13.96875 -0.347656 13.828125 -0.707031 13.828125 -1.28125 L 13.828125 -25.546875 L 4.125 -25.546875 C 3.945312 -25.546875 3.71875 -25.613281 3.4375 -25.75 C 3.164062 -25.894531 3.03125 -26.28125 3.03125 -26.90625 L 3.03125 -29.859375 C 3.03125 -30.441406 3.164062 -30.800781 3.4375 -30.9375 C 3.71875 -31.070312 3.945312 -31.140625 4.125 -31.140625 Z M 29.140625 -31.140625 "/></g></g><g style="fill:#0b1320;fill-opacity:1;"><g transform="translate(306.976445, 162.438081)"><path style="stroke:none" d="M 7.5625 -31.140625 C 7.707031 -31.140625 7.921875 -31.0625 8.203125 -30.90625 C 8.484375 -30.757812 8.625 -30.398438 8.625 -29.828125 L 8.625 -1.28125 C 8.625 -0.707031 8.484375 -0.34375 8.203125 -0.1875 C 7.921875 -0.0390625 7.707031 0.03125 7.5625 0.03125 L 4.078125 0.03125 C 3.929688 0.03125 3.71875 -0.0390625 3.4375 -0.1875 C 3.164062 -0.34375 3.03125 -0.707031 3.03125 -1.28125 L 3.03125 -29.828125 C 3.03125 -30.398438 3.164062 -30.757812 3.4375 -30.90625 C 3.71875 -31.0625 3.929688 -31.140625 4.078125 -31.140625 Z M 7.5625 -31.140625 "/></g></g><g style="fill:#0b1320;fill-opacity:1;"><g transform="translate(318.313729, 162.438081)"><path style="stroke:none" d="M 23.28125 -27.625 L 33.90625 -1.4375 C 34.050781 -1.082031 34.085938 -0.78125 34.015625 -0.53125 C 33.992188 -0.425781 33.925781 -0.304688 33.8125 -0.171875 C 33.695312 -0.0351562 33.488281 0.03125 33.1875 0.03125 L 29.140625 0.03125 C 28.609375 0.03125 28.242188 -0.242188 28.046875 -0.796875 L 18.671875 -24.1875 C 18.648438 -24.238281 18.640625 -24.265625 18.640625 -24.265625 L 18.484375 -24.265625 C 18.484375 -24.265625 18.472656 -24.257812 18.453125 -24.25 C 18.441406 -24.238281 18.425781 -24.207031 18.40625 -24.15625 L 13.5625 -11.90625 L 18.25 -11.90625 C 18.78125 -11.90625 19.148438 -11.65625 19.359375 -11.15625 L 20.71875 -7.78125 C 20.84375 -7.351562 20.789062 -6.988281 20.5625 -6.6875 C 20.363281 -6.332031 20.035156 -6.15625 19.578125 -6.15625 L 11.296875 -6.15625 L 9.140625 -0.75 C 8.941406 -0.226562 8.59375 0.03125 8.09375 0.03125 L 3.9375 0.03125 C 3.632812 0.03125 3.425781 -0.0351562 3.3125 -0.171875 C 3.195312 -0.304688 3.125 -0.425781 3.09375 -0.53125 C 3.019531 -0.757812 3.046875 -1.0625 3.171875 -1.4375 L 13.71875 -27.625 C 14.21875 -28.96875 14.773438 -29.890625 15.390625 -30.390625 C 15.460938 -30.441406 15.546875 -30.503906 15.640625 -30.578125 C 15.742188 -30.648438 15.847656 -30.710938 15.953125 -30.765625 C 16.703125 -31.296875 17.570312 -31.5625 18.5625 -31.5625 C 19.59375 -31.5625 20.523438 -31.242188 21.359375 -30.609375 C 22.191406 -29.984375 22.757812 -29.179688 23.0625 -28.203125 C 23.101562 -28.117188 23.144531 -28.023438 23.1875 -27.921875 C 23.226562 -27.828125 23.257812 -27.726562 23.28125 -27.625 Z M 23.28125 -27.625 "/></g></g></g></svg>