<svg xmlns="http://www.w3.org/2000/svg" xmlns:xlink="http://www.w3.org/1999/xlink" width="500" zoomAndPan="magnify" viewBox="0 0 375 374.999991" height="500" preserveAspectRatio="xMidYMid meet" version="1.2"><defs><clipPath id="3f443520d5"><path d="M 146 156 L 226.058594 156 L 226.058594 233.621094 L 146 233.621094 Z M 146 156 "/></clipPath><clipPath id="af2ad88ebf"><path d="M 130.058594 141.371094 L 186 141.371094 L 186 196 L 130.058594 196 Z M 130.058594 141.371094 "/></clipPath></defs><g id="4ab7ee4453"><g clip-rule="nonzero" clip-path="url(#3f443520d5)"><path style=" stroke:none;fill-rule:nonzero;fill:#00bf63;fill-opacity:1;" d="M 216.898438 166.875 C 210.722656 160.261719 201.941406 156.902344 190.804688 156.902344 L 185.496094 156.902344 C 186.472656 160.234375 186.933594 164.164062 186.933594 168.6875 C 186.933594 169.121094 186.933594 169.554688 186.90625 169.988281 L 190.78125 169.988281 C 198.257812 169.988281 203.648438 171.886719 207.335938 175.816406 C 211.074219 179.824219 212.96875 186.382812 212.96875 195.351562 C 212.96875 204.238281 211.074219 210.742188 207.363281 214.671875 C 203.703125 218.546875 198.257812 220.441406 190.78125 220.441406 L 182.109375 220.441406 C 174.628906 220.441406 169.210938 218.546875 165.527344 214.671875 C 161.867188 210.824219 160 204.484375 159.917969 195.8125 L 154.171875 195.8125 C 151.519531 195.8125 149.078125 195.566406 146.855469 195.054688 C 146.855469 195.132812 146.855469 195.242188 146.855469 195.324219 C 146.855469 207.679688 149.945312 217.191406 156.042969 223.640625 C 162.21875 230.167969 171 233.503906 182.109375 233.503906 L 190.78125 233.503906 C 201.886719 233.503906 210.667969 230.195312 216.84375 223.640625 C 222.941406 217.191406 226.03125 207.679688 226.03125 195.324219 C 226.058594 182.941406 222.96875 173.375 216.898438 166.875 Z M 216.898438 166.875 "/></g><path style=" stroke:none;fill-rule:nonzero;fill:#00bf63;fill-opacity:1;" d="M 186.933594 169.960938 C 186.742188 178.28125 184.871094 184.433594 181.160156 188.710938 C 177.070312 193.425781 170.945312 195.8125 162.898438 195.8125 L 159.972656 195.8125 C 159.972656 195.648438 159.972656 195.488281 159.972656 195.324219 C 159.972656 190.394531 160.539062 186.191406 161.679688 182.726562 C 162.601562 179.90625 163.902344 177.578125 165.609375 175.789062 C 167.722656 173.511719 170.457031 171.914062 173.816406 170.964844 C 176.257812 170.289062 179.019531 169.9375 182.164062 169.9375 L 186.933594 169.9375 Z M 186.933594 169.960938 "/><g clip-rule="nonzero" clip-path="url(#af2ad88ebf)"><path style=" stroke:none;fill-rule:nonzero;fill:#00bf63;fill-opacity:1;" d="M 185.496094 156.875 C 184.546875 153.597656 183.136719 150.859375 181.242188 148.609375 C 177.175781 143.816406 171.027344 141.402344 162.871094 141.402344 L 154.199219 141.402344 C 146.070312 141.402344 139.894531 143.816406 135.828125 148.585938 C 131.953125 153.109375 130.058594 159.71875 130.058594 168.742188 C 130.058594 177.738281 131.925781 184.269531 135.773438 188.738281 C 138.511719 191.910156 142.222656 194.023438 146.855469 195.054688 C 146.882812 190.230469 147.371094 185.839844 148.320312 181.882812 C 148.753906 180.070312 149.296875 178.335938 149.945312 176.683594 C 151.4375 172.863281 153.441406 169.582031 156.015625 166.847656 C 160.160156 162.402344 165.472656 159.449219 171.867188 157.960938 C 175.007812 157.226562 178.421875 156.847656 182.109375 156.847656 L 185.496094 156.847656 Z M 185.496094 156.875 "/></g></g></svg>